<?xml version="1.0" encoding="utf-8" standalone="no"?>
<!DOCTYPE svg PUBLIC "-//W3C//DTD SVG 1.1//EN"
  "http://www.w3.org/Graphics/SVG/1.1/DTD/svg11.dtd">
<svg height="266.0675pt" version="1.1" viewBox="0 0 387.08375 266.0675" width="387.08375pt" xmlns="http://www.w3.org/2000/svg" xmlns:xlink="http://www.w3.org/1999/xlink">
 <metadata>
  <rdf:RDF xmlns:cc="http://creativecommons.org/ns#" xmlns:dc="http://purl.org/dc/elements/1.1/" xmlns:rdf="http://www.w3.org/1999/02/22-rdf-syntax-ns#">
   <cc:Work>
    <dc:type rdf:resource="http://purl.org/dc/dcmitype/StillImage"/>
    <dc:date>2023-01-09T04:30:33.043297</dc:date>
    <dc:format>image/svg+xml</dc:format>
    <dc:creator>
     <cc:Agent>
      <dc:title>Matplotlib v3.4.3, https://matplotlib.org/</dc:title>
     </cc:Agent>
    </dc:creator>
   </cc:Work>
  </rdf:RDF>
 </metadata>
 <defs>
  <style type="text/css">*{stroke-linecap:butt;stroke-linejoin:round;}</style>
 </defs>
 <g id="figure_1">
  <g id="patch_1">
   <path d="M 0 266.0675 
L 387.08375 266.0675 
L 387.08375 0 
L 0 0 
z
" style="fill:#ffffff;"/>
  </g>
  <g id="axes_1">
   <g id="patch_2">
    <path d="M 45.08375 224.64 
L 379.88375 224.64 
L 379.88375 7.2 
L 45.08375 7.2 
z
" style="fill:#ffffff;"/>
   </g>
   <g id="matplotlib.axis_1">
    <g id="xtick_1">
     <g id="line2d_1">
      <defs>
       <path d="M 0 0 
L 0 3.5 
" id="m02febb199b" style="stroke:#000000;stroke-width:0.8;"/>
      </defs>
      <g>
       <use style="stroke:#000000;stroke-width:0.8;" x="60.301932" xlink:href="#m02febb199b" y="224.64"/>
      </g>
     </g>
     <g id="text_1">
      <!-- 400 -->
      <g transform="translate(48.849432 240.758125)scale(0.12 -0.12)">
       <defs>
        <path d="M 2419 4116 
L 825 1625 
L 2419 1625 
L 2419 4116 
z
M 2253 4666 
L 3047 4666 
L 3047 1625 
L 3713 1625 
L 3713 1100 
L 3047 1100 
L 3047 0 
L 2419 0 
L 2419 1100 
L 313 1100 
L 313 1709 
L 2253 4666 
z
" id="DejaVuSans-34" transform="scale(0.015625)"/>
        <path d="M 2034 4250 
Q 1547 4250 1301 3770 
Q 1056 3291 1056 2328 
Q 1056 1369 1301 889 
Q 1547 409 2034 409 
Q 2525 409 2770 889 
Q 3016 1369 3016 2328 
Q 3016 3291 2770 3770 
Q 2525 4250 2034 4250 
z
M 2034 4750 
Q 2819 4750 3233 4129 
Q 3647 3509 3647 2328 
Q 3647 1150 3233 529 
Q 2819 -91 2034 -91 
Q 1250 -91 836 529 
Q 422 1150 422 2328 
Q 422 3509 836 4129 
Q 1250 4750 2034 4750 
z
" id="DejaVuSans-30" transform="scale(0.015625)"/>
       </defs>
       <use xlink:href="#DejaVuSans-34"/>
       <use x="63.623047" xlink:href="#DejaVuSans-30"/>
       <use x="127.246094" xlink:href="#DejaVuSans-30"/>
      </g>
     </g>
    </g>
    <g id="xtick_2">
     <g id="line2d_2">
      <g>
       <use style="stroke:#000000;stroke-width:0.8;" x="121.174659" xlink:href="#m02febb199b" y="224.64"/>
      </g>
     </g>
     <g id="text_2">
      <!-- 500 -->
      <g transform="translate(109.722159 240.758125)scale(0.12 -0.12)">
       <defs>
        <path d="M 691 4666 
L 3169 4666 
L 3169 4134 
L 1269 4134 
L 1269 2991 
Q 1406 3038 1543 3061 
Q 1681 3084 1819 3084 
Q 2600 3084 3056 2656 
Q 3513 2228 3513 1497 
Q 3513 744 3044 326 
Q 2575 -91 1722 -91 
Q 1428 -91 1123 -41 
Q 819 9 494 109 
L 494 744 
Q 775 591 1075 516 
Q 1375 441 1709 441 
Q 2250 441 2565 725 
Q 2881 1009 2881 1497 
Q 2881 1984 2565 2268 
Q 2250 2553 1709 2553 
Q 1456 2553 1204 2497 
Q 953 2441 691 2322 
L 691 4666 
z
" id="DejaVuSans-35" transform="scale(0.015625)"/>
       </defs>
       <use xlink:href="#DejaVuSans-35"/>
       <use x="63.623047" xlink:href="#DejaVuSans-30"/>
       <use x="127.246094" xlink:href="#DejaVuSans-30"/>
      </g>
     </g>
    </g>
    <g id="xtick_3">
     <g id="line2d_3">
      <g>
       <use style="stroke:#000000;stroke-width:0.8;" x="182.047386" xlink:href="#m02febb199b" y="224.64"/>
      </g>
     </g>
     <g id="text_3">
      <!-- 600 -->
      <g transform="translate(170.594886 240.758125)scale(0.12 -0.12)">
       <defs>
        <path d="M 2113 2584 
Q 1688 2584 1439 2293 
Q 1191 2003 1191 1497 
Q 1191 994 1439 701 
Q 1688 409 2113 409 
Q 2538 409 2786 701 
Q 3034 994 3034 1497 
Q 3034 2003 2786 2293 
Q 2538 2584 2113 2584 
z
M 3366 4563 
L 3366 3988 
Q 3128 4100 2886 4159 
Q 2644 4219 2406 4219 
Q 1781 4219 1451 3797 
Q 1122 3375 1075 2522 
Q 1259 2794 1537 2939 
Q 1816 3084 2150 3084 
Q 2853 3084 3261 2657 
Q 3669 2231 3669 1497 
Q 3669 778 3244 343 
Q 2819 -91 2113 -91 
Q 1303 -91 875 529 
Q 447 1150 447 2328 
Q 447 3434 972 4092 
Q 1497 4750 2381 4750 
Q 2619 4750 2861 4703 
Q 3103 4656 3366 4563 
z
" id="DejaVuSans-36" transform="scale(0.015625)"/>
       </defs>
       <use xlink:href="#DejaVuSans-36"/>
       <use x="63.623047" xlink:href="#DejaVuSans-30"/>
       <use x="127.246094" xlink:href="#DejaVuSans-30"/>
      </g>
     </g>
    </g>
    <g id="xtick_4">
     <g id="line2d_4">
      <g>
       <use style="stroke:#000000;stroke-width:0.8;" x="242.920114" xlink:href="#m02febb199b" y="224.64"/>
      </g>
     </g>
     <g id="text_4">
      <!-- 700 -->
      <g transform="translate(231.467614 240.758125)scale(0.12 -0.12)">
       <defs>
        <path d="M 525 4666 
L 3525 4666 
L 3525 4397 
L 1831 0 
L 1172 0 
L 2766 4134 
L 525 4134 
L 525 4666 
z
" id="DejaVuSans-37" transform="scale(0.015625)"/>
       </defs>
       <use xlink:href="#DejaVuSans-37"/>
       <use x="63.623047" xlink:href="#DejaVuSans-30"/>
       <use x="127.246094" xlink:href="#DejaVuSans-30"/>
      </g>
     </g>
    </g>
    <g id="xtick_5">
     <g id="line2d_5">
      <g>
       <use style="stroke:#000000;stroke-width:0.8;" x="303.792841" xlink:href="#m02febb199b" y="224.64"/>
      </g>
     </g>
     <g id="text_5">
      <!-- 800 -->
      <g transform="translate(292.340341 240.758125)scale(0.12 -0.12)">
       <defs>
        <path d="M 2034 2216 
Q 1584 2216 1326 1975 
Q 1069 1734 1069 1313 
Q 1069 891 1326 650 
Q 1584 409 2034 409 
Q 2484 409 2743 651 
Q 3003 894 3003 1313 
Q 3003 1734 2745 1975 
Q 2488 2216 2034 2216 
z
M 1403 2484 
Q 997 2584 770 2862 
Q 544 3141 544 3541 
Q 544 4100 942 4425 
Q 1341 4750 2034 4750 
Q 2731 4750 3128 4425 
Q 3525 4100 3525 3541 
Q 3525 3141 3298 2862 
Q 3072 2584 2669 2484 
Q 3125 2378 3379 2068 
Q 3634 1759 3634 1313 
Q 3634 634 3220 271 
Q 2806 -91 2034 -91 
Q 1263 -91 848 271 
Q 434 634 434 1313 
Q 434 1759 690 2068 
Q 947 2378 1403 2484 
z
M 1172 3481 
Q 1172 3119 1398 2916 
Q 1625 2713 2034 2713 
Q 2441 2713 2670 2916 
Q 2900 3119 2900 3481 
Q 2900 3844 2670 4047 
Q 2441 4250 2034 4250 
Q 1625 4250 1398 4047 
Q 1172 3844 1172 3481 
z
" id="DejaVuSans-38" transform="scale(0.015625)"/>
       </defs>
       <use xlink:href="#DejaVuSans-38"/>
       <use x="63.623047" xlink:href="#DejaVuSans-30"/>
       <use x="127.246094" xlink:href="#DejaVuSans-30"/>
      </g>
     </g>
    </g>
    <g id="xtick_6">
     <g id="line2d_6">
      <g>
       <use style="stroke:#000000;stroke-width:0.8;" x="364.665568" xlink:href="#m02febb199b" y="224.64"/>
      </g>
     </g>
     <g id="text_6">
      <!-- 900 -->
      <g transform="translate(353.213068 240.758125)scale(0.12 -0.12)">
       <defs>
        <path d="M 703 97 
L 703 672 
Q 941 559 1184 500 
Q 1428 441 1663 441 
Q 2288 441 2617 861 
Q 2947 1281 2994 2138 
Q 2813 1869 2534 1725 
Q 2256 1581 1919 1581 
Q 1219 1581 811 2004 
Q 403 2428 403 3163 
Q 403 3881 828 4315 
Q 1253 4750 1959 4750 
Q 2769 4750 3195 4129 
Q 3622 3509 3622 2328 
Q 3622 1225 3098 567 
Q 2575 -91 1691 -91 
Q 1453 -91 1209 -44 
Q 966 3 703 97 
z
M 1959 2075 
Q 2384 2075 2632 2365 
Q 2881 2656 2881 3163 
Q 2881 3666 2632 3958 
Q 2384 4250 1959 4250 
Q 1534 4250 1286 3958 
Q 1038 3666 1038 3163 
Q 1038 2656 1286 2365 
Q 1534 2075 1959 2075 
z
" id="DejaVuSans-39" transform="scale(0.015625)"/>
       </defs>
       <use xlink:href="#DejaVuSans-39"/>
       <use x="63.623047" xlink:href="#DejaVuSans-30"/>
       <use x="127.246094" xlink:href="#DejaVuSans-30"/>
      </g>
     </g>
    </g>
    <g id="text_7">
     <!-- Wavelength (nm) -->
     <g transform="translate(160.653125 256.371875)scale(0.12 -0.12)">
      <defs>
       <path d="M 213 4666 
L 850 4666 
L 1831 722 
L 2809 4666 
L 3519 4666 
L 4500 722 
L 5478 4666 
L 6119 4666 
L 4947 0 
L 4153 0 
L 3169 4050 
L 2175 0 
L 1381 0 
L 213 4666 
z
" id="DejaVuSans-57" transform="scale(0.015625)"/>
       <path d="M 2194 1759 
Q 1497 1759 1228 1600 
Q 959 1441 959 1056 
Q 959 750 1161 570 
Q 1363 391 1709 391 
Q 2188 391 2477 730 
Q 2766 1069 2766 1631 
L 2766 1759 
L 2194 1759 
z
M 3341 1997 
L 3341 0 
L 2766 0 
L 2766 531 
Q 2569 213 2275 61 
Q 1981 -91 1556 -91 
Q 1019 -91 701 211 
Q 384 513 384 1019 
Q 384 1609 779 1909 
Q 1175 2209 1959 2209 
L 2766 2209 
L 2766 2266 
Q 2766 2663 2505 2880 
Q 2244 3097 1772 3097 
Q 1472 3097 1187 3025 
Q 903 2953 641 2809 
L 641 3341 
Q 956 3463 1253 3523 
Q 1550 3584 1831 3584 
Q 2591 3584 2966 3190 
Q 3341 2797 3341 1997 
z
" id="DejaVuSans-61" transform="scale(0.015625)"/>
       <path d="M 191 3500 
L 800 3500 
L 1894 563 
L 2988 3500 
L 3597 3500 
L 2284 0 
L 1503 0 
L 191 3500 
z
" id="DejaVuSans-76" transform="scale(0.015625)"/>
       <path d="M 3597 1894 
L 3597 1613 
L 953 1613 
Q 991 1019 1311 708 
Q 1631 397 2203 397 
Q 2534 397 2845 478 
Q 3156 559 3463 722 
L 3463 178 
Q 3153 47 2828 -22 
Q 2503 -91 2169 -91 
Q 1331 -91 842 396 
Q 353 884 353 1716 
Q 353 2575 817 3079 
Q 1281 3584 2069 3584 
Q 2775 3584 3186 3129 
Q 3597 2675 3597 1894 
z
M 3022 2063 
Q 3016 2534 2758 2815 
Q 2500 3097 2075 3097 
Q 1594 3097 1305 2825 
Q 1016 2553 972 2059 
L 3022 2063 
z
" id="DejaVuSans-65" transform="scale(0.015625)"/>
       <path d="M 603 4863 
L 1178 4863 
L 1178 0 
L 603 0 
L 603 4863 
z
" id="DejaVuSans-6c" transform="scale(0.015625)"/>
       <path d="M 3513 2113 
L 3513 0 
L 2938 0 
L 2938 2094 
Q 2938 2591 2744 2837 
Q 2550 3084 2163 3084 
Q 1697 3084 1428 2787 
Q 1159 2491 1159 1978 
L 1159 0 
L 581 0 
L 581 3500 
L 1159 3500 
L 1159 2956 
Q 1366 3272 1645 3428 
Q 1925 3584 2291 3584 
Q 2894 3584 3203 3211 
Q 3513 2838 3513 2113 
z
" id="DejaVuSans-6e" transform="scale(0.015625)"/>
       <path d="M 2906 1791 
Q 2906 2416 2648 2759 
Q 2391 3103 1925 3103 
Q 1463 3103 1205 2759 
Q 947 2416 947 1791 
Q 947 1169 1205 825 
Q 1463 481 1925 481 
Q 2391 481 2648 825 
Q 2906 1169 2906 1791 
z
M 3481 434 
Q 3481 -459 3084 -895 
Q 2688 -1331 1869 -1331 
Q 1566 -1331 1297 -1286 
Q 1028 -1241 775 -1147 
L 775 -588 
Q 1028 -725 1275 -790 
Q 1522 -856 1778 -856 
Q 2344 -856 2625 -561 
Q 2906 -266 2906 331 
L 2906 616 
Q 2728 306 2450 153 
Q 2172 0 1784 0 
Q 1141 0 747 490 
Q 353 981 353 1791 
Q 353 2603 747 3093 
Q 1141 3584 1784 3584 
Q 2172 3584 2450 3431 
Q 2728 3278 2906 2969 
L 2906 3500 
L 3481 3500 
L 3481 434 
z
" id="DejaVuSans-67" transform="scale(0.015625)"/>
       <path d="M 1172 4494 
L 1172 3500 
L 2356 3500 
L 2356 3053 
L 1172 3053 
L 1172 1153 
Q 1172 725 1289 603 
Q 1406 481 1766 481 
L 2356 481 
L 2356 0 
L 1766 0 
Q 1100 0 847 248 
Q 594 497 594 1153 
L 594 3053 
L 172 3053 
L 172 3500 
L 594 3500 
L 594 4494 
L 1172 4494 
z
" id="DejaVuSans-74" transform="scale(0.015625)"/>
       <path d="M 3513 2113 
L 3513 0 
L 2938 0 
L 2938 2094 
Q 2938 2591 2744 2837 
Q 2550 3084 2163 3084 
Q 1697 3084 1428 2787 
Q 1159 2491 1159 1978 
L 1159 0 
L 581 0 
L 581 4863 
L 1159 4863 
L 1159 2956 
Q 1366 3272 1645 3428 
Q 1925 3584 2291 3584 
Q 2894 3584 3203 3211 
Q 3513 2838 3513 2113 
z
" id="DejaVuSans-68" transform="scale(0.015625)"/>
       <path id="DejaVuSans-20" transform="scale(0.015625)"/>
       <path d="M 1984 4856 
Q 1566 4138 1362 3434 
Q 1159 2731 1159 2009 
Q 1159 1288 1364 580 
Q 1569 -128 1984 -844 
L 1484 -844 
Q 1016 -109 783 600 
Q 550 1309 550 2009 
Q 550 2706 781 3412 
Q 1013 4119 1484 4856 
L 1984 4856 
z
" id="DejaVuSans-28" transform="scale(0.015625)"/>
       <path d="M 3328 2828 
Q 3544 3216 3844 3400 
Q 4144 3584 4550 3584 
Q 5097 3584 5394 3201 
Q 5691 2819 5691 2113 
L 5691 0 
L 5113 0 
L 5113 2094 
Q 5113 2597 4934 2840 
Q 4756 3084 4391 3084 
Q 3944 3084 3684 2787 
Q 3425 2491 3425 1978 
L 3425 0 
L 2847 0 
L 2847 2094 
Q 2847 2600 2669 2842 
Q 2491 3084 2119 3084 
Q 1678 3084 1418 2786 
Q 1159 2488 1159 1978 
L 1159 0 
L 581 0 
L 581 3500 
L 1159 3500 
L 1159 2956 
Q 1356 3278 1631 3431 
Q 1906 3584 2284 3584 
Q 2666 3584 2933 3390 
Q 3200 3197 3328 2828 
z
" id="DejaVuSans-6d" transform="scale(0.015625)"/>
       <path d="M 513 4856 
L 1013 4856 
Q 1481 4119 1714 3412 
Q 1947 2706 1947 2009 
Q 1947 1309 1714 600 
Q 1481 -109 1013 -844 
L 513 -844 
Q 928 -128 1133 580 
Q 1338 1288 1338 2009 
Q 1338 2731 1133 3434 
Q 928 4138 513 4856 
z
" id="DejaVuSans-29" transform="scale(0.015625)"/>
      </defs>
      <use xlink:href="#DejaVuSans-57"/>
      <use x="92.501953" xlink:href="#DejaVuSans-61"/>
      <use x="153.78125" xlink:href="#DejaVuSans-76"/>
      <use x="212.960938" xlink:href="#DejaVuSans-65"/>
      <use x="274.484375" xlink:href="#DejaVuSans-6c"/>
      <use x="302.267578" xlink:href="#DejaVuSans-65"/>
      <use x="363.791016" xlink:href="#DejaVuSans-6e"/>
      <use x="427.169922" xlink:href="#DejaVuSans-67"/>
      <use x="490.646484" xlink:href="#DejaVuSans-74"/>
      <use x="529.855469" xlink:href="#DejaVuSans-68"/>
      <use x="593.234375" xlink:href="#DejaVuSans-20"/>
      <use x="625.021484" xlink:href="#DejaVuSans-28"/>
      <use x="664.035156" xlink:href="#DejaVuSans-6e"/>
      <use x="727.414062" xlink:href="#DejaVuSans-6d"/>
      <use x="824.826172" xlink:href="#DejaVuSans-29"/>
     </g>
    </g>
   </g>
   <g id="matplotlib.axis_2">
    <g id="ytick_1">
     <g id="line2d_7">
      <defs>
       <path d="M 0 0 
L -3.5 0 
" id="m0ea9ad0511" style="stroke:#000000;stroke-width:0.8;"/>
      </defs>
      <g>
       <use style="stroke:#000000;stroke-width:0.8;" x="45.08375" xlink:href="#m0ea9ad0511" y="214.857004"/>
      </g>
     </g>
     <g id="text_8">
      <!-- 0 -->
      <g transform="translate(30.44875 219.416066)scale(0.12 -0.12)">
       <use xlink:href="#DejaVuSans-30"/>
      </g>
     </g>
    </g>
    <g id="ytick_2">
     <g id="line2d_8">
      <g>
       <use style="stroke:#000000;stroke-width:0.8;" x="45.08375" xlink:href="#m0ea9ad0511" y="177.265924"/>
      </g>
     </g>
     <g id="text_9">
      <!-- 10 -->
      <g transform="translate(22.81375 181.824987)scale(0.12 -0.12)">
       <defs>
        <path d="M 794 531 
L 1825 531 
L 1825 4091 
L 703 3866 
L 703 4441 
L 1819 4666 
L 2450 4666 
L 2450 531 
L 3481 531 
L 3481 0 
L 794 0 
L 794 531 
z
" id="DejaVuSans-31" transform="scale(0.015625)"/>
       </defs>
       <use xlink:href="#DejaVuSans-31"/>
       <use x="63.623047" xlink:href="#DejaVuSans-30"/>
      </g>
     </g>
    </g>
    <g id="ytick_3">
     <g id="line2d_9">
      <g>
       <use style="stroke:#000000;stroke-width:0.8;" x="45.08375" xlink:href="#m0ea9ad0511" y="139.674845"/>
      </g>
     </g>
     <g id="text_10">
      <!-- 20 -->
      <g transform="translate(22.81375 144.233907)scale(0.12 -0.12)">
       <defs>
        <path d="M 1228 531 
L 3431 531 
L 3431 0 
L 469 0 
L 469 531 
Q 828 903 1448 1529 
Q 2069 2156 2228 2338 
Q 2531 2678 2651 2914 
Q 2772 3150 2772 3378 
Q 2772 3750 2511 3984 
Q 2250 4219 1831 4219 
Q 1534 4219 1204 4116 
Q 875 4013 500 3803 
L 500 4441 
Q 881 4594 1212 4672 
Q 1544 4750 1819 4750 
Q 2544 4750 2975 4387 
Q 3406 4025 3406 3419 
Q 3406 3131 3298 2873 
Q 3191 2616 2906 2266 
Q 2828 2175 2409 1742 
Q 1991 1309 1228 531 
z
" id="DejaVuSans-32" transform="scale(0.015625)"/>
       </defs>
       <use xlink:href="#DejaVuSans-32"/>
       <use x="63.623047" xlink:href="#DejaVuSans-30"/>
      </g>
     </g>
    </g>
    <g id="ytick_4">
     <g id="line2d_10">
      <g>
       <use style="stroke:#000000;stroke-width:0.8;" x="45.08375" xlink:href="#m0ea9ad0511" y="102.083765"/>
      </g>
     </g>
     <g id="text_11">
      <!-- 30 -->
      <g transform="translate(22.81375 106.642828)scale(0.12 -0.12)">
       <defs>
        <path d="M 2597 2516 
Q 3050 2419 3304 2112 
Q 3559 1806 3559 1356 
Q 3559 666 3084 287 
Q 2609 -91 1734 -91 
Q 1441 -91 1130 -33 
Q 819 25 488 141 
L 488 750 
Q 750 597 1062 519 
Q 1375 441 1716 441 
Q 2309 441 2620 675 
Q 2931 909 2931 1356 
Q 2931 1769 2642 2001 
Q 2353 2234 1838 2234 
L 1294 2234 
L 1294 2753 
L 1863 2753 
Q 2328 2753 2575 2939 
Q 2822 3125 2822 3475 
Q 2822 3834 2567 4026 
Q 2313 4219 1838 4219 
Q 1578 4219 1281 4162 
Q 984 4106 628 3988 
L 628 4550 
Q 988 4650 1302 4700 
Q 1616 4750 1894 4750 
Q 2613 4750 3031 4423 
Q 3450 4097 3450 3541 
Q 3450 3153 3228 2886 
Q 3006 2619 2597 2516 
z
" id="DejaVuSans-33" transform="scale(0.015625)"/>
       </defs>
       <use xlink:href="#DejaVuSans-33"/>
       <use x="63.623047" xlink:href="#DejaVuSans-30"/>
      </g>
     </g>
    </g>
    <g id="ytick_5">
     <g id="line2d_11">
      <g>
       <use style="stroke:#000000;stroke-width:0.8;" x="45.08375" xlink:href="#m0ea9ad0511" y="64.492686"/>
      </g>
     </g>
     <g id="text_12">
      <!-- 40 -->
      <g transform="translate(22.81375 69.051748)scale(0.12 -0.12)">
       <use xlink:href="#DejaVuSans-34"/>
       <use x="63.623047" xlink:href="#DejaVuSans-30"/>
      </g>
     </g>
    </g>
    <g id="ytick_6">
     <g id="line2d_12">
      <g>
       <use style="stroke:#000000;stroke-width:0.8;" x="45.08375" xlink:href="#m0ea9ad0511" y="26.901606"/>
      </g>
     </g>
     <g id="text_13">
      <!-- 50 -->
      <g transform="translate(22.81375 31.460669)scale(0.12 -0.12)">
       <use xlink:href="#DejaVuSans-35"/>
       <use x="63.623047" xlink:href="#DejaVuSans-30"/>
      </g>
     </g>
    </g>
    <g id="text_14">
     <!-- Transmittance (%) -->
     <g transform="translate(16.318125 170.746875)rotate(-90)scale(0.12 -0.12)">
      <defs>
       <path d="M -19 4666 
L 3928 4666 
L 3928 4134 
L 2272 4134 
L 2272 0 
L 1638 0 
L 1638 4134 
L -19 4134 
L -19 4666 
z
" id="DejaVuSans-54" transform="scale(0.015625)"/>
       <path d="M 2631 2963 
Q 2534 3019 2420 3045 
Q 2306 3072 2169 3072 
Q 1681 3072 1420 2755 
Q 1159 2438 1159 1844 
L 1159 0 
L 581 0 
L 581 3500 
L 1159 3500 
L 1159 2956 
Q 1341 3275 1631 3429 
Q 1922 3584 2338 3584 
Q 2397 3584 2469 3576 
Q 2541 3569 2628 3553 
L 2631 2963 
z
" id="DejaVuSans-72" transform="scale(0.015625)"/>
       <path d="M 2834 3397 
L 2834 2853 
Q 2591 2978 2328 3040 
Q 2066 3103 1784 3103 
Q 1356 3103 1142 2972 
Q 928 2841 928 2578 
Q 928 2378 1081 2264 
Q 1234 2150 1697 2047 
L 1894 2003 
Q 2506 1872 2764 1633 
Q 3022 1394 3022 966 
Q 3022 478 2636 193 
Q 2250 -91 1575 -91 
Q 1294 -91 989 -36 
Q 684 19 347 128 
L 347 722 
Q 666 556 975 473 
Q 1284 391 1588 391 
Q 1994 391 2212 530 
Q 2431 669 2431 922 
Q 2431 1156 2273 1281 
Q 2116 1406 1581 1522 
L 1381 1569 
Q 847 1681 609 1914 
Q 372 2147 372 2553 
Q 372 3047 722 3315 
Q 1072 3584 1716 3584 
Q 2034 3584 2315 3537 
Q 2597 3491 2834 3397 
z
" id="DejaVuSans-73" transform="scale(0.015625)"/>
       <path d="M 603 3500 
L 1178 3500 
L 1178 0 
L 603 0 
L 603 3500 
z
M 603 4863 
L 1178 4863 
L 1178 4134 
L 603 4134 
L 603 4863 
z
" id="DejaVuSans-69" transform="scale(0.015625)"/>
       <path d="M 3122 3366 
L 3122 2828 
Q 2878 2963 2633 3030 
Q 2388 3097 2138 3097 
Q 1578 3097 1268 2742 
Q 959 2388 959 1747 
Q 959 1106 1268 751 
Q 1578 397 2138 397 
Q 2388 397 2633 464 
Q 2878 531 3122 666 
L 3122 134 
Q 2881 22 2623 -34 
Q 2366 -91 2075 -91 
Q 1284 -91 818 406 
Q 353 903 353 1747 
Q 353 2603 823 3093 
Q 1294 3584 2113 3584 
Q 2378 3584 2631 3529 
Q 2884 3475 3122 3366 
z
" id="DejaVuSans-63" transform="scale(0.015625)"/>
       <path d="M 4653 2053 
Q 4381 2053 4226 1822 
Q 4072 1591 4072 1178 
Q 4072 772 4226 539 
Q 4381 306 4653 306 
Q 4919 306 5073 539 
Q 5228 772 5228 1178 
Q 5228 1588 5073 1820 
Q 4919 2053 4653 2053 
z
M 4653 2450 
Q 5147 2450 5437 2106 
Q 5728 1763 5728 1178 
Q 5728 594 5436 251 
Q 5144 -91 4653 -91 
Q 4153 -91 3862 251 
Q 3572 594 3572 1178 
Q 3572 1766 3864 2108 
Q 4156 2450 4653 2450 
z
M 1428 4353 
Q 1159 4353 1004 4120 
Q 850 3888 850 3481 
Q 850 3069 1003 2837 
Q 1156 2606 1428 2606 
Q 1700 2606 1854 2837 
Q 2009 3069 2009 3481 
Q 2009 3884 1853 4118 
Q 1697 4353 1428 4353 
z
M 4250 4750 
L 4750 4750 
L 1831 -91 
L 1331 -91 
L 4250 4750 
z
M 1428 4750 
Q 1922 4750 2215 4408 
Q 2509 4066 2509 3481 
Q 2509 2891 2217 2550 
Q 1925 2209 1428 2209 
Q 931 2209 642 2551 
Q 353 2894 353 3481 
Q 353 4063 643 4406 
Q 934 4750 1428 4750 
z
" id="DejaVuSans-25" transform="scale(0.015625)"/>
      </defs>
      <use xlink:href="#DejaVuSans-54"/>
      <use x="46.333984" xlink:href="#DejaVuSans-72"/>
      <use x="87.447266" xlink:href="#DejaVuSans-61"/>
      <use x="148.726562" xlink:href="#DejaVuSans-6e"/>
      <use x="212.105469" xlink:href="#DejaVuSans-73"/>
      <use x="264.205078" xlink:href="#DejaVuSans-6d"/>
      <use x="361.617188" xlink:href="#DejaVuSans-69"/>
      <use x="389.400391" xlink:href="#DejaVuSans-74"/>
      <use x="428.609375" xlink:href="#DejaVuSans-74"/>
      <use x="467.818359" xlink:href="#DejaVuSans-61"/>
      <use x="529.097656" xlink:href="#DejaVuSans-6e"/>
      <use x="592.476562" xlink:href="#DejaVuSans-63"/>
      <use x="647.457031" xlink:href="#DejaVuSans-65"/>
      <use x="708.980469" xlink:href="#DejaVuSans-20"/>
      <use x="740.767578" xlink:href="#DejaVuSans-28"/>
      <use x="779.78125" xlink:href="#DejaVuSans-25"/>
      <use x="874.800781" xlink:href="#DejaVuSans-29"/>
     </g>
    </g>
   </g>
   <g id="line2d_13">
    <path clip-path="url(#p67978461b3)" d="M 60.301932 214.511136 
L 68.215386 214.38693 
L 74.302659 214.062081 
L 81.607386 213.411624 
L 90.738295 212.633142 
L 98.65175 212.218007 
L 126.653205 210.994011 
L 167.437932 208.387131 
L 171.699023 207.769297 
L 174.742659 207.120896 
L 177.177568 206.421812 
L 179.612477 205.509907 
L 182.047386 204.327805 
L 183.873568 203.225567 
L 185.69975 201.906812 
L 187.525932 200.342642 
L 189.352114 198.504965 
L 191.178295 196.367751 
L 193.004477 193.908311 
L 194.830659 191.108495 
L 196.656841 187.955734 
L 198.483023 184.443889 
L 200.917932 179.205605 
L 203.352841 173.35483 
L 205.78775 166.939156 
L 208.831386 158.234337 
L 212.48375 147.025283 
L 225.87575 104.913176 
L 228.919386 96.438646 
L 231.354295 90.20318 
L 233.789205 84.496094 
L 236.224114 79.331183 
L 238.659023 74.696193 
L 241.093932 70.55501 
L 243.528841 66.852308 
L 245.96375 63.520089 
L 249.007386 59.763522 
L 252.65975 55.672168 
L 257.529568 50.61072 
L 264.225568 43.992176 
L 269.704114 38.857835 
L 273.965205 35.157273 
L 277.617568 32.265726 
L 281.269932 29.677565 
L 284.313568 27.771539 
L 287.357205 26.099898 
L 290.400841 24.660071 
L 293.444477 23.442717 
L 296.488114 22.433725 
L 300.140477 21.472716 
L 303.792841 20.751813 
L 307.445205 20.244581 
L 311.097568 19.943343 
L 314.749932 19.863586 
L 317.793568 19.99077 
L 320.837205 20.318605 
L 323.880841 20.866263 
L 326.924477 21.646832 
L 329.968114 22.66503 
L 333.01175 23.907907 
L 337.272841 25.92693 
L 342.142659 28.226252 
L 344.577568 29.108729 
L 346.40375 29.535633 
L 348.229932 29.695196 
L 350.056114 29.542156 
L 351.882295 29.0551 
L 353.708477 28.245956 
L 355.534659 27.163044 
L 357.969568 25.436082 
L 362.230659 22.345566 
L 364.056841 21.291962 
L 364.665568 21.005013 
L 364.665568 21.005013 
" style="fill:none;stroke:#ffa500;stroke-linecap:square;stroke-width:1.5;"/>
   </g>
   <g id="line2d_14">
    <path clip-path="url(#p67978461b3)" d="M 60.301932 214.412538 
L 66.997932 214.303805 
L 71.86775 214.024467 
L 77.346295 213.471904 
L 90.738295 211.957576 
L 98.043023 211.450951 
L 141.871386 209.065377 
L 167.437932 207.995036 
L 171.090295 207.553658 
L 174.133932 206.971849 
L 176.568841 206.30089 
L 179.00375 205.385916 
L 180.829932 204.50127 
L 182.656114 203.414786 
L 184.482295 202.097259 
L 186.308477 200.520023 
L 188.134659 198.656144 
L 189.960841 196.481684 
L 191.787023 193.976952 
L 193.613205 191.127644 
L 195.439386 187.925759 
L 197.874295 183.107343 
L 200.309205 177.678774 
L 202.744114 171.680871 
L 205.78775 163.480196 
L 209.440114 152.827812 
L 214.309932 137.814218 
L 221.005932 117.160068 
L 224.658295 106.594014 
L 227.701932 98.448747 
L 230.136841 92.455214 
L 232.57175 86.970618 
L 235.006659 82.012211 
L 237.441568 77.574063 
L 239.876477 73.628364 
L 242.311386 70.128989 
L 244.746295 67.016768 
L 247.181205 64.225455 
L 250.224841 61.085051 
L 253.877205 57.668253 
L 258.747023 53.437384 
L 267.877932 45.844096 
L 274.573932 40.493255 
L 279.44375 36.883753 
L 283.704841 34.029936 
L 287.357205 31.845672 
L 291.009568 29.902956 
L 295.270659 27.914957 
L 299.53175 26.176072 
L 305.010295 24.209159 
L 311.097568 22.281122 
L 315.358659 21.137087 
L 319.011023 20.391917 
L 322.054659 20.006472 
L 324.489568 19.886644 
L 326.924477 19.954643 
L 329.359386 20.220014 
L 331.794295 20.679181 
L 334.837932 21.489969 
L 344.577568 24.392936 
L 346.40375 24.63363 
L 348.229932 24.66768 
L 350.056114 24.464894 
L 351.882295 24.011217 
L 353.708477 23.312295 
L 355.534659 22.397168 
L 357.969568 20.935499 
L 362.839386 17.932318 
L 364.665568 17.083636 
L 364.665568 17.083636 
" style="fill:none;stroke:#008000;stroke-linecap:square;stroke-width:1.5;"/>
   </g>
   <g id="line2d_15">
    <path clip-path="url(#p67978461b3)" d="M 60.301932 214.749506 
L 70.650295 214.644808 
L 78.56375 214.318861 
L 97.434295 213.404216 
L 126.653205 212.258165 
L 144.915023 211.583269 
L 166.220477 210.878683 
L 170.481568 210.500609 
L 174.133932 209.954046 
L 177.177568 209.247155 
L 179.612477 208.448647 
L 182.047386 207.379831 
L 183.873568 206.361935 
L 185.69975 205.126878 
L 187.525932 203.645996 
L 189.352114 201.891772 
L 191.178295 199.839076 
L 193.004477 197.466402 
L 194.830659 194.756997 
L 196.656841 191.699805 
L 198.483023 188.290183 
L 200.917932 183.2008 
L 203.352841 177.515316 
L 205.78775 171.28218 
L 208.831386 162.82866 
L 212.48375 151.948906 
L 225.87575 111.087099 
L 228.919386 102.872825 
L 231.354295 96.840748 
L 233.789205 91.336029 
L 236.224114 86.375224 
L 238.659023 81.948063 
L 241.093932 78.019394 
L 243.528841 74.533928 
L 245.96375 71.423099 
L 249.007386 67.948087 
L 252.65975 64.199554 
L 257.529568 59.592055 
L 266.05175 51.902824 
L 272.74775 46.132355 
L 277.617568 42.2362 
L 281.878659 39.12245 
L 285.531023 36.709245 
L 289.183386 34.546017 
L 292.83575 32.631227 
L 296.488114 30.952626 
L 300.749205 29.266194 
L 305.010295 27.834177 
L 309.271386 26.625052 
L 313.532477 25.641904 
L 317.184841 25.006638 
L 320.837205 24.597716 
L 324.489568 24.446165 
L 327.533205 24.527979 
L 331.185568 24.873531 
L 334.837932 25.476821 
L 338.490295 26.319203 
L 342.142659 27.375938 
L 346.40375 28.835602 
L 356.752114 32.526384 
L 359.187023 33.099542 
L 361.621932 33.461158 
L 364.665568 33.654912 
L 364.665568 33.654912 
" style="fill:none;stroke:#800080;stroke-linecap:square;stroke-width:1.5;"/>
   </g>
   <g id="line2d_16">
    <path clip-path="url(#p67978461b3)" d="M 60.301932 214.412538 
L 66.997932 214.303805 
L 71.86775 214.024467 
L 77.346295 213.471904 
L 90.738295 211.957576 
L 98.043023 211.450951 
L 141.871386 209.065377 
L 167.437932 207.995036 
L 171.090295 207.553658 
L 174.133932 206.971849 
L 176.568841 206.30089 
L 179.00375 205.385916 
L 180.829932 204.50127 
L 182.656114 203.414786 
L 184.482295 202.097259 
L 186.308477 200.520023 
L 188.134659 198.656144 
L 189.960841 196.481684 
L 191.787023 193.976952 
L 193.613205 191.127644 
L 195.439386 187.925759 
L 197.874295 183.107343 
L 200.309205 177.678774 
L 202.744114 171.680871 
L 205.78775 163.480196 
L 209.440114 152.827812 
L 214.309932 137.814218 
L 221.005932 117.160068 
L 224.658295 106.594014 
L 227.701932 98.448747 
L 230.136841 92.455214 
L 232.57175 86.970618 
L 235.006659 82.012211 
L 237.441568 77.574063 
L 239.876477 73.628364 
L 242.311386 70.128989 
L 244.746295 67.016768 
L 247.181205 64.225455 
L 250.224841 61.085051 
L 253.877205 57.668253 
L 258.747023 53.437384 
L 267.877932 45.844096 
L 274.573932 40.493255 
L 279.44375 36.883753 
L 283.704841 34.029936 
L 287.357205 31.845672 
L 291.009568 29.902956 
L 295.270659 27.914957 
L 299.53175 26.176072 
L 305.010295 24.209159 
L 311.097568 22.281122 
L 315.358659 21.137087 
L 319.011023 20.391917 
L 322.054659 20.006472 
L 324.489568 19.886644 
L 326.924477 19.954643 
L 329.359386 20.220014 
L 331.794295 20.679181 
L 334.837932 21.489969 
L 344.577568 24.392936 
L 346.40375 24.63363 
L 348.229932 24.66768 
L 350.056114 24.464894 
L 351.882295 24.011217 
L 353.708477 23.312295 
L 355.534659 22.397168 
L 357.969568 20.935499 
L 362.839386 17.932318 
L 364.665568 17.083636 
L 364.665568 17.083636 
" style="fill:none;stroke:#008080;stroke-linecap:square;stroke-width:1.5;"/>
   </g>
   <g id="line2d_17">
    <path clip-path="url(#p67978461b3)" d="M 60.301932 214.412538 
L 66.997932 214.303805 
L 71.86775 214.024467 
L 77.346295 213.471904 
L 90.738295 211.957576 
L 98.043023 211.450951 
L 141.871386 209.065377 
L 167.437932 207.995036 
L 171.090295 207.553658 
L 174.133932 206.971849 
L 176.568841 206.30089 
L 179.00375 205.385916 
L 180.829932 204.50127 
L 182.656114 203.414786 
L 184.482295 202.097259 
L 186.308477 200.520023 
L 188.134659 198.656144 
L 189.960841 196.481684 
L 191.787023 193.976952 
L 193.613205 191.127644 
L 195.439386 187.925759 
L 197.874295 183.107343 
L 200.309205 177.678774 
L 202.744114 171.680871 
L 205.78775 163.480196 
L 209.440114 152.827812 
L 214.309932 137.814218 
L 221.005932 117.160068 
L 224.658295 106.594014 
L 227.701932 98.448747 
L 230.136841 92.455214 
L 232.57175 86.970618 
L 235.006659 82.012211 
L 237.441568 77.574063 
L 239.876477 73.628364 
L 242.311386 70.128989 
L 244.746295 67.016768 
L 247.181205 64.225455 
L 250.224841 61.085051 
L 253.877205 57.668253 
L 258.747023 53.437384 
L 267.877932 45.844096 
L 274.573932 40.493255 
L 279.44375 36.883753 
L 283.704841 34.029936 
L 287.357205 31.845672 
L 291.009568 29.902956 
L 295.270659 27.914957 
L 299.53175 26.176072 
L 305.010295 24.209159 
L 311.097568 22.281122 
L 315.358659 21.137087 
L 319.011023 20.391917 
L 322.054659 20.006472 
L 324.489568 19.886644 
L 326.924477 19.954643 
L 329.359386 20.220014 
L 331.794295 20.679181 
L 334.837932 21.489969 
L 344.577568 24.392936 
L 346.40375 24.63363 
L 348.229932 24.66768 
L 350.056114 24.464894 
L 351.882295 24.011217 
L 353.708477 23.312295 
L 355.534659 22.397168 
L 357.969568 20.935499 
L 362.839386 17.932318 
L 364.665568 17.083636 
L 364.665568 17.083636 
" style="fill:none;stroke:#4b0082;stroke-linecap:square;stroke-width:1.5;"/>
   </g>
   <g id="line2d_18">
    <path clip-path="url(#p67978461b3)" d="M 60.301932 214.412538 
L 66.997932 214.303805 
L 71.86775 214.024467 
L 77.346295 213.471904 
L 90.738295 211.957576 
L 98.043023 211.450951 
L 141.871386 209.065377 
L 167.437932 207.995036 
L 171.090295 207.553658 
L 174.133932 206.971849 
L 176.568841 206.30089 
L 179.00375 205.385916 
L 180.829932 204.50127 
L 182.656114 203.414786 
L 184.482295 202.097259 
L 186.308477 200.520023 
L 188.134659 198.656144 
L 189.960841 196.481684 
L 191.787023 193.976952 
L 193.613205 191.127644 
L 195.439386 187.925759 
L 197.874295 183.107343 
L 200.309205 177.678774 
L 202.744114 171.680871 
L 205.78775 163.480196 
L 209.440114 152.827812 
L 214.309932 137.814218 
L 221.005932 117.160068 
L 224.658295 106.594014 
L 227.701932 98.448747 
L 230.136841 92.455214 
L 232.57175 86.970618 
L 235.006659 82.012211 
L 237.441568 77.574063 
L 239.876477 73.628364 
L 242.311386 70.128989 
L 244.746295 67.016768 
L 247.181205 64.225455 
L 250.224841 61.085051 
L 253.877205 57.668253 
L 258.747023 53.437384 
L 267.877932 45.844096 
L 274.573932 40.493255 
L 279.44375 36.883753 
L 283.704841 34.029936 
L 287.357205 31.845672 
L 291.009568 29.902956 
L 295.270659 27.914957 
L 299.53175 26.176072 
L 305.010295 24.209159 
L 311.097568 22.281122 
L 315.358659 21.137087 
L 319.011023 20.391917 
L 322.054659 20.006472 
L 324.489568 19.886644 
L 326.924477 19.954643 
L 329.359386 20.220014 
L 331.794295 20.679181 
L 334.837932 21.489969 
L 344.577568 24.392936 
L 346.40375 24.63363 
L 348.229932 24.66768 
L 350.056114 24.464894 
L 351.882295 24.011217 
L 353.708477 23.312295 
L 355.534659 22.397168 
L 357.969568 20.935499 
L 362.839386 17.932318 
L 364.665568 17.083636 
L 364.665568 17.083636 
" style="fill:none;stroke:#0000ff;stroke-linecap:square;stroke-width:1.5;"/>
   </g>
   <g id="line2d_19">
    <path clip-path="url(#p67978461b3)" d="M 60.301932 214.755717 
L 70.650295 214.65669 
L 77.955023 214.348898 
L 99.260477 213.242425 
L 126.653205 212.133532 
L 146.741205 211.324027 
L 162.568114 210.703367 
L 168.046659 210.266244 
L 172.30775 209.698928 
L 175.351386 209.091765 
L 178.395023 208.23851 
L 180.829932 207.320253 
L 183.264841 206.136428 
L 185.091023 205.040297 
L 186.917205 203.738286 
L 188.743386 202.206063 
L 190.569568 200.420643 
L 192.39575 198.361442 
L 194.221932 196.011295 
L 196.048114 193.357374 
L 197.874295 190.391944 
L 200.309205 185.950813 
L 202.744114 180.965072 
L 205.179023 175.466486 
L 208.222659 167.949983 
L 211.266295 159.842458 
L 215.527386 147.800986 
L 227.093205 114.638232 
L 230.745568 105.099133 
L 233.789205 97.797383 
L 236.224114 92.44446 
L 238.659023 87.553368 
L 241.093932 83.129245 
L 243.528841 79.158512 
L 245.96375 75.611499 
L 248.398659 72.446317 
L 250.833568 69.612741 
L 253.877205 66.453792 
L 256.920841 63.621776 
L 260.573205 60.522614 
L 265.443023 56.694079 
L 272.74775 51.271838 
L 278.835023 47.00748 
L 283.704841 43.86259 
L 287.965932 41.363088 
L 292.227023 39.11079 
L 297.096841 36.809165 
L 302.575386 34.495072 
L 308.053932 32.432264 
L 312.315023 31.040018 
L 315.967386 30.05368 
L 319.011023 29.426791 
L 322.054659 29.02039 
L 325.098295 28.873499 
L 327.533205 28.964037 
L 329.968114 29.248364 
L 332.403023 29.724572 
L 335.446659 30.569611 
L 339.099023 31.87763 
L 348.229932 35.380293 
L 351.273568 36.227124 
L 354.317205 36.844938 
L 358.578295 37.467289 
L 363.448114 37.99426 
L 364.665568 38.083538 
L 364.665568 38.083538 
" style="fill:none;stroke:#c0c0c0;stroke-linecap:square;stroke-width:1.5;"/>
   </g>
   <g id="line2d_20">
    <path clip-path="url(#p67978461b3)" d="M 60.301932 214.318338 
L 67.606659 214.166447 
L 73.085205 213.842767 
L 79.781205 213.195674 
L 89.520841 212.241197 
L 96.216841 211.823401 
L 106.565205 211.445758 
L 120.565932 210.899764 
L 131.523023 210.217388 
L 147.958659 209.189275 
L 166.829205 208.118793 
L 171.090295 207.645681 
L 174.742659 207.016801 
L 177.786295 206.239251 
L 180.221205 205.3817 
L 182.656114 204.250645 
L 184.482295 203.183541 
L 186.308477 201.896947 
L 188.134659 200.362281 
L 189.960841 198.552396 
L 191.787023 196.442876 
L 193.613205 194.013317 
L 195.439386 191.248471 
L 197.265568 188.139185 
L 199.700477 183.454629 
L 202.135386 178.168875 
L 204.570295 172.319655 
L 207.613932 164.30814 
L 210.657568 155.665284 
L 214.918659 142.859827 
L 224.658295 113.299648 
L 228.310659 103.112223 
L 231.354295 95.319836 
L 233.789205 89.621945 
L 236.224114 84.437115 
L 238.659023 79.775652 
L 241.093932 75.625435 
L 243.528841 71.95393 
L 245.96375 68.711603 
L 248.398659 65.836385 
L 251.442295 62.652811 
L 254.485932 59.797374 
L 258.747023 56.120831 
L 267.269205 49.153776 
L 273.965205 43.888691 
L 278.835023 40.340329 
L 282.487386 37.922554 
L 286.13975 35.75548 
L 289.792114 33.851805 
L 293.444477 32.201086 
L 297.096841 30.776459 
L 301.357932 29.35202 
L 306.22775 27.973696 
L 311.097568 26.815382 
L 315.967386 25.880767 
L 319.61975 25.37727 
L 322.663386 25.142039 
L 325.707023 25.127883 
L 328.141932 25.30828 
L 330.576841 25.677353 
L 333.01175 26.238178 
L 336.055386 27.179647 
L 341.533932 29.215348 
L 344.577568 30.23548 
L 347.012477 30.837772 
L 349.447386 31.173851 
L 351.273568 31.228794 
L 353.708477 31.038488 
L 356.143386 30.583121 
L 359.79575 29.594862 
L 363.448114 28.630615 
L 364.665568 28.389575 
L 364.665568 28.389575 
" style="fill:none;stroke:#000000;stroke-linecap:square;stroke-width:1.5;"/>
   </g>
   <g id="line2d_21">
    <path clip-path="url(#p67978461b3)" d="M 60.301932 214.327409 
L 67.606659 214.187809 
L 73.085205 213.8767 
L 79.781205 213.241304 
L 90.129568 212.242247 
L 97.434295 211.809228 
L 110.217568 211.347444 
L 122.392114 210.810477 
L 135.784114 209.954632 
L 149.176114 209.170428 
L 166.220477 208.242881 
L 171.090295 207.730226 
L 174.742659 207.118739 
L 177.786295 206.364734 
L 180.221205 205.5343 
L 182.656114 204.439527 
L 184.482295 203.406609 
L 186.308477 202.160871 
L 188.134659 200.674278 
L 189.960841 198.920111 
L 191.787023 196.874236 
L 193.613205 194.516349 
L 195.439386 191.831086 
L 197.265568 188.80893 
L 199.700477 184.251137 
L 202.135386 179.102081 
L 204.570295 173.396349 
L 207.613932 165.567903 
L 210.657568 157.104673 
L 214.918659 144.529962 
L 225.267023 113.584023 
L 228.919386 103.586267 
L 231.963023 95.954217 
L 234.397932 90.384378 
L 236.832841 85.325889 
L 239.26775 80.787426 
L 241.702659 76.754853 
L 244.137568 73.193074 
L 246.572477 70.050129 
L 249.007386 67.262659 
L 252.051023 64.173365 
L 255.094659 61.400933 
L 259.35575 57.843493 
L 265.443023 53.076413 
L 272.74775 47.622642 
L 278.226295 43.812193 
L 282.487386 41.109902 
L 286.748477 38.690382 
L 290.400841 36.86065 
L 294.053205 35.257212 
L 298.314295 33.652908 
L 302.575386 32.291595 
L 307.445205 30.974584 
L 312.315023 29.883222 
L 317.184841 29.025276 
L 322.054659 28.41431 
L 326.924477 28.045624 
L 331.794295 27.91506 
L 336.055386 28.027822 
L 339.70775 28.350906 
L 342.751386 28.845162 
L 345.186295 29.442263 
L 347.621205 30.267197 
L 350.056114 31.36154 
L 352.491023 32.751511 
L 354.925932 34.42615 
L 358.578295 37.284819 
L 361.621932 39.569284 
L 363.448114 40.676538 
L 364.665568 41.250666 
L 364.665568 41.250666 
" style="fill:none;stroke:#ffd700;stroke-linecap:square;stroke-width:1.5;"/>
   </g>
   <g id="patch_3">
    <path d="M 45.08375 224.64 
L 45.08375 7.2 
" style="fill:none;stroke:#000000;stroke-linecap:square;stroke-linejoin:miter;stroke-width:0.8;"/>
   </g>
   <g id="patch_4">
    <path d="M 379.88375 224.64 
L 379.88375 7.2 
" style="fill:none;stroke:#000000;stroke-linecap:square;stroke-linejoin:miter;stroke-width:0.8;"/>
   </g>
   <g id="patch_5">
    <path d="M 45.08375 224.64 
L 379.88375 224.64 
" style="fill:none;stroke:#000000;stroke-linecap:square;stroke-linejoin:miter;stroke-width:0.8;"/>
   </g>
   <g id="patch_6">
    <path d="M 45.08375 7.2 
L 379.88375 7.2 
" style="fill:none;stroke:#000000;stroke-linecap:square;stroke-linejoin:miter;stroke-width:0.8;"/>
   </g>
   <g id="legend_1">
    <g id="patch_7">
     <path d="M 52.08375 147.303125 
L 138.380625 147.303125 
Q 140.380625 147.303125 140.380625 145.303125 
L 140.380625 14.2 
Q 140.380625 12.2 138.380625 12.2 
L 52.08375 12.2 
Q 50.08375 12.2 50.08375 14.2 
L 50.08375 145.303125 
Q 50.08375 147.303125 52.08375 147.303125 
z
" style="fill:#ffffff;opacity:0.8;stroke:#cccccc;stroke-linejoin:miter;"/>
    </g>
    <g id="line2d_22">
     <path d="M 54.08375 20.298437 
L 74.08375 20.298437 
" style="fill:none;stroke:#ffa500;stroke-linecap:square;stroke-width:1.5;"/>
    </g>
    <g id="line2d_23"/>
    <g id="text_15">
     <!-- Day 2 -->
     <g transform="translate(82.08375 23.798437)scale(0.1 -0.1)">
      <defs>
       <path d="M 1259 4147 
L 1259 519 
L 2022 519 
Q 2988 519 3436 956 
Q 3884 1394 3884 2338 
Q 3884 3275 3436 3711 
Q 2988 4147 2022 4147 
L 1259 4147 
z
M 628 4666 
L 1925 4666 
Q 3281 4666 3915 4102 
Q 4550 3538 4550 2338 
Q 4550 1131 3912 565 
Q 3275 0 1925 0 
L 628 0 
L 628 4666 
z
" id="DejaVuSans-44" transform="scale(0.015625)"/>
       <path d="M 2059 -325 
Q 1816 -950 1584 -1140 
Q 1353 -1331 966 -1331 
L 506 -1331 
L 506 -850 
L 844 -850 
Q 1081 -850 1212 -737 
Q 1344 -625 1503 -206 
L 1606 56 
L 191 3500 
L 800 3500 
L 1894 763 
L 2988 3500 
L 3597 3500 
L 2059 -325 
z
" id="DejaVuSans-79" transform="scale(0.015625)"/>
      </defs>
      <use xlink:href="#DejaVuSans-44"/>
      <use x="77.001953" xlink:href="#DejaVuSans-61"/>
      <use x="138.28125" xlink:href="#DejaVuSans-79"/>
      <use x="197.460938" xlink:href="#DejaVuSans-20"/>
      <use x="229.248047" xlink:href="#DejaVuSans-32"/>
     </g>
    </g>
    <g id="line2d_24">
     <path d="M 54.08375 34.976562 
L 74.08375 34.976562 
" style="fill:none;stroke:#008000;stroke-linecap:square;stroke-width:1.5;"/>
    </g>
    <g id="line2d_25"/>
    <g id="text_16">
     <!-- Day 20 AM -->
     <g transform="translate(82.08375 38.476562)scale(0.1 -0.1)">
      <defs>
       <path d="M 2188 4044 
L 1331 1722 
L 3047 1722 
L 2188 4044 
z
M 1831 4666 
L 2547 4666 
L 4325 0 
L 3669 0 
L 3244 1197 
L 1141 1197 
L 716 0 
L 50 0 
L 1831 4666 
z
" id="DejaVuSans-41" transform="scale(0.015625)"/>
       <path d="M 628 4666 
L 1569 4666 
L 2759 1491 
L 3956 4666 
L 4897 4666 
L 4897 0 
L 4281 0 
L 4281 4097 
L 3078 897 
L 2444 897 
L 1241 4097 
L 1241 0 
L 628 0 
L 628 4666 
z
" id="DejaVuSans-4d" transform="scale(0.015625)"/>
      </defs>
      <use xlink:href="#DejaVuSans-44"/>
      <use x="77.001953" xlink:href="#DejaVuSans-61"/>
      <use x="138.28125" xlink:href="#DejaVuSans-79"/>
      <use x="197.460938" xlink:href="#DejaVuSans-20"/>
      <use x="229.248047" xlink:href="#DejaVuSans-32"/>
      <use x="292.871094" xlink:href="#DejaVuSans-30"/>
      <use x="356.494141" xlink:href="#DejaVuSans-20"/>
      <use x="388.28125" xlink:href="#DejaVuSans-41"/>
      <use x="456.689453" xlink:href="#DejaVuSans-4d"/>
     </g>
    </g>
    <g id="line2d_26">
     <path d="M 54.08375 49.654687 
L 74.08375 49.654687 
" style="fill:none;stroke:#800080;stroke-linecap:square;stroke-width:1.5;"/>
    </g>
    <g id="line2d_27"/>
    <g id="text_17">
     <!-- Day 20 PM -->
     <g transform="translate(82.08375 53.154687)scale(0.1 -0.1)">
      <defs>
       <path d="M 1259 4147 
L 1259 2394 
L 2053 2394 
Q 2494 2394 2734 2622 
Q 2975 2850 2975 3272 
Q 2975 3691 2734 3919 
Q 2494 4147 2053 4147 
L 1259 4147 
z
M 628 4666 
L 2053 4666 
Q 2838 4666 3239 4311 
Q 3641 3956 3641 3272 
Q 3641 2581 3239 2228 
Q 2838 1875 2053 1875 
L 1259 1875 
L 1259 0 
L 628 0 
L 628 4666 
z
" id="DejaVuSans-50" transform="scale(0.015625)"/>
      </defs>
      <use xlink:href="#DejaVuSans-44"/>
      <use x="77.001953" xlink:href="#DejaVuSans-61"/>
      <use x="138.28125" xlink:href="#DejaVuSans-79"/>
      <use x="197.460938" xlink:href="#DejaVuSans-20"/>
      <use x="229.248047" xlink:href="#DejaVuSans-32"/>
      <use x="292.871094" xlink:href="#DejaVuSans-30"/>
      <use x="356.494141" xlink:href="#DejaVuSans-20"/>
      <use x="388.28125" xlink:href="#DejaVuSans-50"/>
      <use x="448.583984" xlink:href="#DejaVuSans-4d"/>
     </g>
    </g>
    <g id="line2d_28">
     <path d="M 54.08375 64.332812 
L 74.08375 64.332812 
" style="fill:none;stroke:#008080;stroke-linecap:square;stroke-width:1.5;"/>
    </g>
    <g id="line2d_29"/>
    <g id="text_18">
     <!-- Day 27 -->
     <g transform="translate(82.08375 67.832812)scale(0.1 -0.1)">
      <use xlink:href="#DejaVuSans-44"/>
      <use x="77.001953" xlink:href="#DejaVuSans-61"/>
      <use x="138.28125" xlink:href="#DejaVuSans-79"/>
      <use x="197.460938" xlink:href="#DejaVuSans-20"/>
      <use x="229.248047" xlink:href="#DejaVuSans-32"/>
      <use x="292.871094" xlink:href="#DejaVuSans-37"/>
     </g>
    </g>
    <g id="line2d_30">
     <path d="M 54.08375 79.010937 
L 74.08375 79.010937 
" style="fill:none;stroke:#4b0082;stroke-linecap:square;stroke-width:1.5;"/>
    </g>
    <g id="line2d_31"/>
    <g id="text_19">
     <!-- Day 43 -->
     <g transform="translate(82.08375 82.510937)scale(0.1 -0.1)">
      <use xlink:href="#DejaVuSans-44"/>
      <use x="77.001953" xlink:href="#DejaVuSans-61"/>
      <use x="138.28125" xlink:href="#DejaVuSans-79"/>
      <use x="197.460938" xlink:href="#DejaVuSans-20"/>
      <use x="229.248047" xlink:href="#DejaVuSans-34"/>
      <use x="292.871094" xlink:href="#DejaVuSans-33"/>
     </g>
    </g>
    <g id="line2d_32">
     <path d="M 54.08375 93.689062 
L 74.08375 93.689062 
" style="fill:none;stroke:#0000ff;stroke-linecap:square;stroke-width:1.5;"/>
    </g>
    <g id="line2d_33"/>
    <g id="text_20">
     <!-- Day 51 -->
     <g transform="translate(82.08375 97.189062)scale(0.1 -0.1)">
      <use xlink:href="#DejaVuSans-44"/>
      <use x="77.001953" xlink:href="#DejaVuSans-61"/>
      <use x="138.28125" xlink:href="#DejaVuSans-79"/>
      <use x="197.460938" xlink:href="#DejaVuSans-20"/>
      <use x="229.248047" xlink:href="#DejaVuSans-35"/>
      <use x="292.871094" xlink:href="#DejaVuSans-31"/>
     </g>
    </g>
    <g id="line2d_34">
     <path d="M 54.08375 108.367187 
L 74.08375 108.367187 
" style="fill:none;stroke:#c0c0c0;stroke-linecap:square;stroke-width:1.5;"/>
    </g>
    <g id="line2d_35"/>
    <g id="text_21">
     <!-- Day 6 -->
     <g transform="translate(82.08375 111.867187)scale(0.1 -0.1)">
      <use xlink:href="#DejaVuSans-44"/>
      <use x="77.001953" xlink:href="#DejaVuSans-61"/>
      <use x="138.28125" xlink:href="#DejaVuSans-79"/>
      <use x="197.460938" xlink:href="#DejaVuSans-20"/>
      <use x="229.248047" xlink:href="#DejaVuSans-36"/>
     </g>
    </g>
    <g id="line2d_36">
     <path d="M 54.08375 123.045312 
L 74.08375 123.045312 
" style="fill:none;stroke:#000000;stroke-linecap:square;stroke-width:1.5;"/>
    </g>
    <g id="line2d_37"/>
    <g id="text_22">
     <!-- Day 7 -->
     <g transform="translate(82.08375 126.545312)scale(0.1 -0.1)">
      <use xlink:href="#DejaVuSans-44"/>
      <use x="77.001953" xlink:href="#DejaVuSans-61"/>
      <use x="138.28125" xlink:href="#DejaVuSans-79"/>
      <use x="197.460938" xlink:href="#DejaVuSans-20"/>
      <use x="229.248047" xlink:href="#DejaVuSans-37"/>
     </g>
    </g>
    <g id="line2d_38">
     <path d="M 54.08375 137.723437 
L 74.08375 137.723437 
" style="fill:none;stroke:#ffd700;stroke-linecap:square;stroke-width:1.5;"/>
    </g>
    <g id="line2d_39"/>
    <g id="text_23">
     <!-- Day 9 -->
     <g transform="translate(82.08375 141.223437)scale(0.1 -0.1)">
      <use xlink:href="#DejaVuSans-44"/>
      <use x="77.001953" xlink:href="#DejaVuSans-61"/>
      <use x="138.28125" xlink:href="#DejaVuSans-79"/>
      <use x="197.460938" xlink:href="#DejaVuSans-20"/>
      <use x="229.248047" xlink:href="#DejaVuSans-39"/>
     </g>
    </g>
   </g>
  </g>
 </g>
 <defs>
  <clipPath id="p67978461b3">
   <rect height="217.44" width="334.8" x="45.08375" y="7.2"/>
  </clipPath>
 </defs>
</svg>
