<?xml version="1.0" encoding="utf-8" standalone="no"?>
<!DOCTYPE svg PUBLIC "-//W3C//DTD SVG 1.1//EN"
  "http://www.w3.org/Graphics/SVG/1.1/DTD/svg11.dtd">
<svg height="266.0675pt" version="1.1" viewBox="0 0 387.08375 266.0675" width="387.08375pt" xmlns="http://www.w3.org/2000/svg" xmlns:xlink="http://www.w3.org/1999/xlink">
 <metadata>
  <rdf:RDF xmlns:cc="http://creativecommons.org/ns#" xmlns:dc="http://purl.org/dc/elements/1.1/" xmlns:rdf="http://www.w3.org/1999/02/22-rdf-syntax-ns#">
   <cc:Work>
    <dc:type rdf:resource="http://purl.org/dc/dcmitype/StillImage"/>
    <dc:date>2023-01-09T04:30:45.172121</dc:date>
    <dc:format>image/svg+xml</dc:format>
    <dc:creator>
     <cc:Agent>
      <dc:title>Matplotlib v3.4.3, https://matplotlib.org/</dc:title>
     </cc:Agent>
    </dc:creator>
   </cc:Work>
  </rdf:RDF>
 </metadata>
 <defs>
  <style type="text/css">*{stroke-linecap:butt;stroke-linejoin:round;}</style>
 </defs>
 <g id="figure_1">
  <g id="patch_1">
   <path d="M 0 266.0675 
L 387.08375 266.0675 
L 387.08375 0 
L 0 0 
z
" style="fill:#ffffff;"/>
  </g>
  <g id="axes_1">
   <g id="patch_2">
    <path d="M 45.08375 224.64 
L 379.88375 224.64 
L 379.88375 7.2 
L 45.08375 7.2 
z
" style="fill:#ffffff;"/>
   </g>
   <g id="matplotlib.axis_1">
    <g id="xtick_1">
     <g id="line2d_1">
      <defs>
       <path d="M 0 0 
L 0 3.5 
" id="m7a811ae1ed" style="stroke:#000000;stroke-width:0.8;"/>
      </defs>
      <g>
       <use style="stroke:#000000;stroke-width:0.8;" x="60.301932" xlink:href="#m7a811ae1ed" y="224.64"/>
      </g>
     </g>
     <g id="text_1">
      <!-- 400 -->
      <g transform="translate(48.849432 240.758125)scale(0.12 -0.12)">
       <defs>
        <path d="M 2419 4116 
L 825 1625 
L 2419 1625 
L 2419 4116 
z
M 2253 4666 
L 3047 4666 
L 3047 1625 
L 3713 1625 
L 3713 1100 
L 3047 1100 
L 3047 0 
L 2419 0 
L 2419 1100 
L 313 1100 
L 313 1709 
L 2253 4666 
z
" id="DejaVuSans-34" transform="scale(0.015625)"/>
        <path d="M 2034 4250 
Q 1547 4250 1301 3770 
Q 1056 3291 1056 2328 
Q 1056 1369 1301 889 
Q 1547 409 2034 409 
Q 2525 409 2770 889 
Q 3016 1369 3016 2328 
Q 3016 3291 2770 3770 
Q 2525 4250 2034 4250 
z
M 2034 4750 
Q 2819 4750 3233 4129 
Q 3647 3509 3647 2328 
Q 3647 1150 3233 529 
Q 2819 -91 2034 -91 
Q 1250 -91 836 529 
Q 422 1150 422 2328 
Q 422 3509 836 4129 
Q 1250 4750 2034 4750 
z
" id="DejaVuSans-30" transform="scale(0.015625)"/>
       </defs>
       <use xlink:href="#DejaVuSans-34"/>
       <use x="63.623047" xlink:href="#DejaVuSans-30"/>
       <use x="127.246094" xlink:href="#DejaVuSans-30"/>
      </g>
     </g>
    </g>
    <g id="xtick_2">
     <g id="line2d_2">
      <g>
       <use style="stroke:#000000;stroke-width:0.8;" x="121.174659" xlink:href="#m7a811ae1ed" y="224.64"/>
      </g>
     </g>
     <g id="text_2">
      <!-- 500 -->
      <g transform="translate(109.722159 240.758125)scale(0.12 -0.12)">
       <defs>
        <path d="M 691 4666 
L 3169 4666 
L 3169 4134 
L 1269 4134 
L 1269 2991 
Q 1406 3038 1543 3061 
Q 1681 3084 1819 3084 
Q 2600 3084 3056 2656 
Q 3513 2228 3513 1497 
Q 3513 744 3044 326 
Q 2575 -91 1722 -91 
Q 1428 -91 1123 -41 
Q 819 9 494 109 
L 494 744 
Q 775 591 1075 516 
Q 1375 441 1709 441 
Q 2250 441 2565 725 
Q 2881 1009 2881 1497 
Q 2881 1984 2565 2268 
Q 2250 2553 1709 2553 
Q 1456 2553 1204 2497 
Q 953 2441 691 2322 
L 691 4666 
z
" id="DejaVuSans-35" transform="scale(0.015625)"/>
       </defs>
       <use xlink:href="#DejaVuSans-35"/>
       <use x="63.623047" xlink:href="#DejaVuSans-30"/>
       <use x="127.246094" xlink:href="#DejaVuSans-30"/>
      </g>
     </g>
    </g>
    <g id="xtick_3">
     <g id="line2d_3">
      <g>
       <use style="stroke:#000000;stroke-width:0.8;" x="182.047386" xlink:href="#m7a811ae1ed" y="224.64"/>
      </g>
     </g>
     <g id="text_3">
      <!-- 600 -->
      <g transform="translate(170.594886 240.758125)scale(0.12 -0.12)">
       <defs>
        <path d="M 2113 2584 
Q 1688 2584 1439 2293 
Q 1191 2003 1191 1497 
Q 1191 994 1439 701 
Q 1688 409 2113 409 
Q 2538 409 2786 701 
Q 3034 994 3034 1497 
Q 3034 2003 2786 2293 
Q 2538 2584 2113 2584 
z
M 3366 4563 
L 3366 3988 
Q 3128 4100 2886 4159 
Q 2644 4219 2406 4219 
Q 1781 4219 1451 3797 
Q 1122 3375 1075 2522 
Q 1259 2794 1537 2939 
Q 1816 3084 2150 3084 
Q 2853 3084 3261 2657 
Q 3669 2231 3669 1497 
Q 3669 778 3244 343 
Q 2819 -91 2113 -91 
Q 1303 -91 875 529 
Q 447 1150 447 2328 
Q 447 3434 972 4092 
Q 1497 4750 2381 4750 
Q 2619 4750 2861 4703 
Q 3103 4656 3366 4563 
z
" id="DejaVuSans-36" transform="scale(0.015625)"/>
       </defs>
       <use xlink:href="#DejaVuSans-36"/>
       <use x="63.623047" xlink:href="#DejaVuSans-30"/>
       <use x="127.246094" xlink:href="#DejaVuSans-30"/>
      </g>
     </g>
    </g>
    <g id="xtick_4">
     <g id="line2d_4">
      <g>
       <use style="stroke:#000000;stroke-width:0.8;" x="242.920114" xlink:href="#m7a811ae1ed" y="224.64"/>
      </g>
     </g>
     <g id="text_4">
      <!-- 700 -->
      <g transform="translate(231.467614 240.758125)scale(0.12 -0.12)">
       <defs>
        <path d="M 525 4666 
L 3525 4666 
L 3525 4397 
L 1831 0 
L 1172 0 
L 2766 4134 
L 525 4134 
L 525 4666 
z
" id="DejaVuSans-37" transform="scale(0.015625)"/>
       </defs>
       <use xlink:href="#DejaVuSans-37"/>
       <use x="63.623047" xlink:href="#DejaVuSans-30"/>
       <use x="127.246094" xlink:href="#DejaVuSans-30"/>
      </g>
     </g>
    </g>
    <g id="xtick_5">
     <g id="line2d_5">
      <g>
       <use style="stroke:#000000;stroke-width:0.8;" x="303.792841" xlink:href="#m7a811ae1ed" y="224.64"/>
      </g>
     </g>
     <g id="text_5">
      <!-- 800 -->
      <g transform="translate(292.340341 240.758125)scale(0.12 -0.12)">
       <defs>
        <path d="M 2034 2216 
Q 1584 2216 1326 1975 
Q 1069 1734 1069 1313 
Q 1069 891 1326 650 
Q 1584 409 2034 409 
Q 2484 409 2743 651 
Q 3003 894 3003 1313 
Q 3003 1734 2745 1975 
Q 2488 2216 2034 2216 
z
M 1403 2484 
Q 997 2584 770 2862 
Q 544 3141 544 3541 
Q 544 4100 942 4425 
Q 1341 4750 2034 4750 
Q 2731 4750 3128 4425 
Q 3525 4100 3525 3541 
Q 3525 3141 3298 2862 
Q 3072 2584 2669 2484 
Q 3125 2378 3379 2068 
Q 3634 1759 3634 1313 
Q 3634 634 3220 271 
Q 2806 -91 2034 -91 
Q 1263 -91 848 271 
Q 434 634 434 1313 
Q 434 1759 690 2068 
Q 947 2378 1403 2484 
z
M 1172 3481 
Q 1172 3119 1398 2916 
Q 1625 2713 2034 2713 
Q 2441 2713 2670 2916 
Q 2900 3119 2900 3481 
Q 2900 3844 2670 4047 
Q 2441 4250 2034 4250 
Q 1625 4250 1398 4047 
Q 1172 3844 1172 3481 
z
" id="DejaVuSans-38" transform="scale(0.015625)"/>
       </defs>
       <use xlink:href="#DejaVuSans-38"/>
       <use x="63.623047" xlink:href="#DejaVuSans-30"/>
       <use x="127.246094" xlink:href="#DejaVuSans-30"/>
      </g>
     </g>
    </g>
    <g id="xtick_6">
     <g id="line2d_6">
      <g>
       <use style="stroke:#000000;stroke-width:0.8;" x="364.665568" xlink:href="#m7a811ae1ed" y="224.64"/>
      </g>
     </g>
     <g id="text_6">
      <!-- 900 -->
      <g transform="translate(353.213068 240.758125)scale(0.12 -0.12)">
       <defs>
        <path d="M 703 97 
L 703 672 
Q 941 559 1184 500 
Q 1428 441 1663 441 
Q 2288 441 2617 861 
Q 2947 1281 2994 2138 
Q 2813 1869 2534 1725 
Q 2256 1581 1919 1581 
Q 1219 1581 811 2004 
Q 403 2428 403 3163 
Q 403 3881 828 4315 
Q 1253 4750 1959 4750 
Q 2769 4750 3195 4129 
Q 3622 3509 3622 2328 
Q 3622 1225 3098 567 
Q 2575 -91 1691 -91 
Q 1453 -91 1209 -44 
Q 966 3 703 97 
z
M 1959 2075 
Q 2384 2075 2632 2365 
Q 2881 2656 2881 3163 
Q 2881 3666 2632 3958 
Q 2384 4250 1959 4250 
Q 1534 4250 1286 3958 
Q 1038 3666 1038 3163 
Q 1038 2656 1286 2365 
Q 1534 2075 1959 2075 
z
" id="DejaVuSans-39" transform="scale(0.015625)"/>
       </defs>
       <use xlink:href="#DejaVuSans-39"/>
       <use x="63.623047" xlink:href="#DejaVuSans-30"/>
       <use x="127.246094" xlink:href="#DejaVuSans-30"/>
      </g>
     </g>
    </g>
    <g id="text_7">
     <!-- Wavelength (nm) -->
     <g transform="translate(160.653125 256.371875)scale(0.12 -0.12)">
      <defs>
       <path d="M 213 4666 
L 850 4666 
L 1831 722 
L 2809 4666 
L 3519 4666 
L 4500 722 
L 5478 4666 
L 6119 4666 
L 4947 0 
L 4153 0 
L 3169 4050 
L 2175 0 
L 1381 0 
L 213 4666 
z
" id="DejaVuSans-57" transform="scale(0.015625)"/>
       <path d="M 2194 1759 
Q 1497 1759 1228 1600 
Q 959 1441 959 1056 
Q 959 750 1161 570 
Q 1363 391 1709 391 
Q 2188 391 2477 730 
Q 2766 1069 2766 1631 
L 2766 1759 
L 2194 1759 
z
M 3341 1997 
L 3341 0 
L 2766 0 
L 2766 531 
Q 2569 213 2275 61 
Q 1981 -91 1556 -91 
Q 1019 -91 701 211 
Q 384 513 384 1019 
Q 384 1609 779 1909 
Q 1175 2209 1959 2209 
L 2766 2209 
L 2766 2266 
Q 2766 2663 2505 2880 
Q 2244 3097 1772 3097 
Q 1472 3097 1187 3025 
Q 903 2953 641 2809 
L 641 3341 
Q 956 3463 1253 3523 
Q 1550 3584 1831 3584 
Q 2591 3584 2966 3190 
Q 3341 2797 3341 1997 
z
" id="DejaVuSans-61" transform="scale(0.015625)"/>
       <path d="M 191 3500 
L 800 3500 
L 1894 563 
L 2988 3500 
L 3597 3500 
L 2284 0 
L 1503 0 
L 191 3500 
z
" id="DejaVuSans-76" transform="scale(0.015625)"/>
       <path d="M 3597 1894 
L 3597 1613 
L 953 1613 
Q 991 1019 1311 708 
Q 1631 397 2203 397 
Q 2534 397 2845 478 
Q 3156 559 3463 722 
L 3463 178 
Q 3153 47 2828 -22 
Q 2503 -91 2169 -91 
Q 1331 -91 842 396 
Q 353 884 353 1716 
Q 353 2575 817 3079 
Q 1281 3584 2069 3584 
Q 2775 3584 3186 3129 
Q 3597 2675 3597 1894 
z
M 3022 2063 
Q 3016 2534 2758 2815 
Q 2500 3097 2075 3097 
Q 1594 3097 1305 2825 
Q 1016 2553 972 2059 
L 3022 2063 
z
" id="DejaVuSans-65" transform="scale(0.015625)"/>
       <path d="M 603 4863 
L 1178 4863 
L 1178 0 
L 603 0 
L 603 4863 
z
" id="DejaVuSans-6c" transform="scale(0.015625)"/>
       <path d="M 3513 2113 
L 3513 0 
L 2938 0 
L 2938 2094 
Q 2938 2591 2744 2837 
Q 2550 3084 2163 3084 
Q 1697 3084 1428 2787 
Q 1159 2491 1159 1978 
L 1159 0 
L 581 0 
L 581 3500 
L 1159 3500 
L 1159 2956 
Q 1366 3272 1645 3428 
Q 1925 3584 2291 3584 
Q 2894 3584 3203 3211 
Q 3513 2838 3513 2113 
z
" id="DejaVuSans-6e" transform="scale(0.015625)"/>
       <path d="M 2906 1791 
Q 2906 2416 2648 2759 
Q 2391 3103 1925 3103 
Q 1463 3103 1205 2759 
Q 947 2416 947 1791 
Q 947 1169 1205 825 
Q 1463 481 1925 481 
Q 2391 481 2648 825 
Q 2906 1169 2906 1791 
z
M 3481 434 
Q 3481 -459 3084 -895 
Q 2688 -1331 1869 -1331 
Q 1566 -1331 1297 -1286 
Q 1028 -1241 775 -1147 
L 775 -588 
Q 1028 -725 1275 -790 
Q 1522 -856 1778 -856 
Q 2344 -856 2625 -561 
Q 2906 -266 2906 331 
L 2906 616 
Q 2728 306 2450 153 
Q 2172 0 1784 0 
Q 1141 0 747 490 
Q 353 981 353 1791 
Q 353 2603 747 3093 
Q 1141 3584 1784 3584 
Q 2172 3584 2450 3431 
Q 2728 3278 2906 2969 
L 2906 3500 
L 3481 3500 
L 3481 434 
z
" id="DejaVuSans-67" transform="scale(0.015625)"/>
       <path d="M 1172 4494 
L 1172 3500 
L 2356 3500 
L 2356 3053 
L 1172 3053 
L 1172 1153 
Q 1172 725 1289 603 
Q 1406 481 1766 481 
L 2356 481 
L 2356 0 
L 1766 0 
Q 1100 0 847 248 
Q 594 497 594 1153 
L 594 3053 
L 172 3053 
L 172 3500 
L 594 3500 
L 594 4494 
L 1172 4494 
z
" id="DejaVuSans-74" transform="scale(0.015625)"/>
       <path d="M 3513 2113 
L 3513 0 
L 2938 0 
L 2938 2094 
Q 2938 2591 2744 2837 
Q 2550 3084 2163 3084 
Q 1697 3084 1428 2787 
Q 1159 2491 1159 1978 
L 1159 0 
L 581 0 
L 581 4863 
L 1159 4863 
L 1159 2956 
Q 1366 3272 1645 3428 
Q 1925 3584 2291 3584 
Q 2894 3584 3203 3211 
Q 3513 2838 3513 2113 
z
" id="DejaVuSans-68" transform="scale(0.015625)"/>
       <path id="DejaVuSans-20" transform="scale(0.015625)"/>
       <path d="M 1984 4856 
Q 1566 4138 1362 3434 
Q 1159 2731 1159 2009 
Q 1159 1288 1364 580 
Q 1569 -128 1984 -844 
L 1484 -844 
Q 1016 -109 783 600 
Q 550 1309 550 2009 
Q 550 2706 781 3412 
Q 1013 4119 1484 4856 
L 1984 4856 
z
" id="DejaVuSans-28" transform="scale(0.015625)"/>
       <path d="M 3328 2828 
Q 3544 3216 3844 3400 
Q 4144 3584 4550 3584 
Q 5097 3584 5394 3201 
Q 5691 2819 5691 2113 
L 5691 0 
L 5113 0 
L 5113 2094 
Q 5113 2597 4934 2840 
Q 4756 3084 4391 3084 
Q 3944 3084 3684 2787 
Q 3425 2491 3425 1978 
L 3425 0 
L 2847 0 
L 2847 2094 
Q 2847 2600 2669 2842 
Q 2491 3084 2119 3084 
Q 1678 3084 1418 2786 
Q 1159 2488 1159 1978 
L 1159 0 
L 581 0 
L 581 3500 
L 1159 3500 
L 1159 2956 
Q 1356 3278 1631 3431 
Q 1906 3584 2284 3584 
Q 2666 3584 2933 3390 
Q 3200 3197 3328 2828 
z
" id="DejaVuSans-6d" transform="scale(0.015625)"/>
       <path d="M 513 4856 
L 1013 4856 
Q 1481 4119 1714 3412 
Q 1947 2706 1947 2009 
Q 1947 1309 1714 600 
Q 1481 -109 1013 -844 
L 513 -844 
Q 928 -128 1133 580 
Q 1338 1288 1338 2009 
Q 1338 2731 1133 3434 
Q 928 4138 513 4856 
z
" id="DejaVuSans-29" transform="scale(0.015625)"/>
      </defs>
      <use xlink:href="#DejaVuSans-57"/>
      <use x="92.501953" xlink:href="#DejaVuSans-61"/>
      <use x="153.78125" xlink:href="#DejaVuSans-76"/>
      <use x="212.960938" xlink:href="#DejaVuSans-65"/>
      <use x="274.484375" xlink:href="#DejaVuSans-6c"/>
      <use x="302.267578" xlink:href="#DejaVuSans-65"/>
      <use x="363.791016" xlink:href="#DejaVuSans-6e"/>
      <use x="427.169922" xlink:href="#DejaVuSans-67"/>
      <use x="490.646484" xlink:href="#DejaVuSans-74"/>
      <use x="529.855469" xlink:href="#DejaVuSans-68"/>
      <use x="593.234375" xlink:href="#DejaVuSans-20"/>
      <use x="625.021484" xlink:href="#DejaVuSans-28"/>
      <use x="664.035156" xlink:href="#DejaVuSans-6e"/>
      <use x="727.414062" xlink:href="#DejaVuSans-6d"/>
      <use x="824.826172" xlink:href="#DejaVuSans-29"/>
     </g>
    </g>
   </g>
   <g id="matplotlib.axis_2">
    <g id="ytick_1">
     <g id="line2d_7">
      <defs>
       <path d="M 0 0 
L -3.5 0 
" id="mfd7d34d95d" style="stroke:#000000;stroke-width:0.8;"/>
      </defs>
      <g>
       <use style="stroke:#000000;stroke-width:0.8;" x="45.08375" xlink:href="#mfd7d34d95d" y="214.766381"/>
      </g>
     </g>
     <g id="text_8">
      <!-- 0 -->
      <g transform="translate(30.44875 219.325443)scale(0.12 -0.12)">
       <use xlink:href="#DejaVuSans-30"/>
      </g>
     </g>
    </g>
    <g id="ytick_2">
     <g id="line2d_8">
      <g>
       <use style="stroke:#000000;stroke-width:0.8;" x="45.08375" xlink:href="#mfd7d34d95d" y="177.200741"/>
      </g>
     </g>
     <g id="text_9">
      <!-- 10 -->
      <g transform="translate(22.81375 181.759804)scale(0.12 -0.12)">
       <defs>
        <path d="M 794 531 
L 1825 531 
L 1825 4091 
L 703 3866 
L 703 4441 
L 1819 4666 
L 2450 4666 
L 2450 531 
L 3481 531 
L 3481 0 
L 794 0 
L 794 531 
z
" id="DejaVuSans-31" transform="scale(0.015625)"/>
       </defs>
       <use xlink:href="#DejaVuSans-31"/>
       <use x="63.623047" xlink:href="#DejaVuSans-30"/>
      </g>
     </g>
    </g>
    <g id="ytick_3">
     <g id="line2d_9">
      <g>
       <use style="stroke:#000000;stroke-width:0.8;" x="45.08375" xlink:href="#mfd7d34d95d" y="139.635101"/>
      </g>
     </g>
     <g id="text_10">
      <!-- 20 -->
      <g transform="translate(22.81375 144.194164)scale(0.12 -0.12)">
       <defs>
        <path d="M 1228 531 
L 3431 531 
L 3431 0 
L 469 0 
L 469 531 
Q 828 903 1448 1529 
Q 2069 2156 2228 2338 
Q 2531 2678 2651 2914 
Q 2772 3150 2772 3378 
Q 2772 3750 2511 3984 
Q 2250 4219 1831 4219 
Q 1534 4219 1204 4116 
Q 875 4013 500 3803 
L 500 4441 
Q 881 4594 1212 4672 
Q 1544 4750 1819 4750 
Q 2544 4750 2975 4387 
Q 3406 4025 3406 3419 
Q 3406 3131 3298 2873 
Q 3191 2616 2906 2266 
Q 2828 2175 2409 1742 
Q 1991 1309 1228 531 
z
" id="DejaVuSans-32" transform="scale(0.015625)"/>
       </defs>
       <use xlink:href="#DejaVuSans-32"/>
       <use x="63.623047" xlink:href="#DejaVuSans-30"/>
      </g>
     </g>
    </g>
    <g id="ytick_4">
     <g id="line2d_10">
      <g>
       <use style="stroke:#000000;stroke-width:0.8;" x="45.08375" xlink:href="#mfd7d34d95d" y="102.069462"/>
      </g>
     </g>
     <g id="text_11">
      <!-- 30 -->
      <g transform="translate(22.81375 106.628524)scale(0.12 -0.12)">
       <defs>
        <path d="M 2597 2516 
Q 3050 2419 3304 2112 
Q 3559 1806 3559 1356 
Q 3559 666 3084 287 
Q 2609 -91 1734 -91 
Q 1441 -91 1130 -33 
Q 819 25 488 141 
L 488 750 
Q 750 597 1062 519 
Q 1375 441 1716 441 
Q 2309 441 2620 675 
Q 2931 909 2931 1356 
Q 2931 1769 2642 2001 
Q 2353 2234 1838 2234 
L 1294 2234 
L 1294 2753 
L 1863 2753 
Q 2328 2753 2575 2939 
Q 2822 3125 2822 3475 
Q 2822 3834 2567 4026 
Q 2313 4219 1838 4219 
Q 1578 4219 1281 4162 
Q 984 4106 628 3988 
L 628 4550 
Q 988 4650 1302 4700 
Q 1616 4750 1894 4750 
Q 2613 4750 3031 4423 
Q 3450 4097 3450 3541 
Q 3450 3153 3228 2886 
Q 3006 2619 2597 2516 
z
" id="DejaVuSans-33" transform="scale(0.015625)"/>
       </defs>
       <use xlink:href="#DejaVuSans-33"/>
       <use x="63.623047" xlink:href="#DejaVuSans-30"/>
      </g>
     </g>
    </g>
    <g id="ytick_5">
     <g id="line2d_11">
      <g>
       <use style="stroke:#000000;stroke-width:0.8;" x="45.08375" xlink:href="#mfd7d34d95d" y="64.503822"/>
      </g>
     </g>
     <g id="text_12">
      <!-- 40 -->
      <g transform="translate(22.81375 69.062885)scale(0.12 -0.12)">
       <use xlink:href="#DejaVuSans-34"/>
       <use x="63.623047" xlink:href="#DejaVuSans-30"/>
      </g>
     </g>
    </g>
    <g id="ytick_6">
     <g id="line2d_12">
      <g>
       <use style="stroke:#000000;stroke-width:0.8;" x="45.08375" xlink:href="#mfd7d34d95d" y="26.938183"/>
      </g>
     </g>
     <g id="text_13">
      <!-- 50 -->
      <g transform="translate(22.81375 31.497245)scale(0.12 -0.12)">
       <use xlink:href="#DejaVuSans-35"/>
       <use x="63.623047" xlink:href="#DejaVuSans-30"/>
      </g>
     </g>
    </g>
    <g id="text_14">
     <!-- Transmittance (%) -->
     <g transform="translate(16.318125 170.746875)rotate(-90)scale(0.12 -0.12)">
      <defs>
       <path d="M -19 4666 
L 3928 4666 
L 3928 4134 
L 2272 4134 
L 2272 0 
L 1638 0 
L 1638 4134 
L -19 4134 
L -19 4666 
z
" id="DejaVuSans-54" transform="scale(0.015625)"/>
       <path d="M 2631 2963 
Q 2534 3019 2420 3045 
Q 2306 3072 2169 3072 
Q 1681 3072 1420 2755 
Q 1159 2438 1159 1844 
L 1159 0 
L 581 0 
L 581 3500 
L 1159 3500 
L 1159 2956 
Q 1341 3275 1631 3429 
Q 1922 3584 2338 3584 
Q 2397 3584 2469 3576 
Q 2541 3569 2628 3553 
L 2631 2963 
z
" id="DejaVuSans-72" transform="scale(0.015625)"/>
       <path d="M 2834 3397 
L 2834 2853 
Q 2591 2978 2328 3040 
Q 2066 3103 1784 3103 
Q 1356 3103 1142 2972 
Q 928 2841 928 2578 
Q 928 2378 1081 2264 
Q 1234 2150 1697 2047 
L 1894 2003 
Q 2506 1872 2764 1633 
Q 3022 1394 3022 966 
Q 3022 478 2636 193 
Q 2250 -91 1575 -91 
Q 1294 -91 989 -36 
Q 684 19 347 128 
L 347 722 
Q 666 556 975 473 
Q 1284 391 1588 391 
Q 1994 391 2212 530 
Q 2431 669 2431 922 
Q 2431 1156 2273 1281 
Q 2116 1406 1581 1522 
L 1381 1569 
Q 847 1681 609 1914 
Q 372 2147 372 2553 
Q 372 3047 722 3315 
Q 1072 3584 1716 3584 
Q 2034 3584 2315 3537 
Q 2597 3491 2834 3397 
z
" id="DejaVuSans-73" transform="scale(0.015625)"/>
       <path d="M 603 3500 
L 1178 3500 
L 1178 0 
L 603 0 
L 603 3500 
z
M 603 4863 
L 1178 4863 
L 1178 4134 
L 603 4134 
L 603 4863 
z
" id="DejaVuSans-69" transform="scale(0.015625)"/>
       <path d="M 3122 3366 
L 3122 2828 
Q 2878 2963 2633 3030 
Q 2388 3097 2138 3097 
Q 1578 3097 1268 2742 
Q 959 2388 959 1747 
Q 959 1106 1268 751 
Q 1578 397 2138 397 
Q 2388 397 2633 464 
Q 2878 531 3122 666 
L 3122 134 
Q 2881 22 2623 -34 
Q 2366 -91 2075 -91 
Q 1284 -91 818 406 
Q 353 903 353 1747 
Q 353 2603 823 3093 
Q 1294 3584 2113 3584 
Q 2378 3584 2631 3529 
Q 2884 3475 3122 3366 
z
" id="DejaVuSans-63" transform="scale(0.015625)"/>
       <path d="M 4653 2053 
Q 4381 2053 4226 1822 
Q 4072 1591 4072 1178 
Q 4072 772 4226 539 
Q 4381 306 4653 306 
Q 4919 306 5073 539 
Q 5228 772 5228 1178 
Q 5228 1588 5073 1820 
Q 4919 2053 4653 2053 
z
M 4653 2450 
Q 5147 2450 5437 2106 
Q 5728 1763 5728 1178 
Q 5728 594 5436 251 
Q 5144 -91 4653 -91 
Q 4153 -91 3862 251 
Q 3572 594 3572 1178 
Q 3572 1766 3864 2108 
Q 4156 2450 4653 2450 
z
M 1428 4353 
Q 1159 4353 1004 4120 
Q 850 3888 850 3481 
Q 850 3069 1003 2837 
Q 1156 2606 1428 2606 
Q 1700 2606 1854 2837 
Q 2009 3069 2009 3481 
Q 2009 3884 1853 4118 
Q 1697 4353 1428 4353 
z
M 4250 4750 
L 4750 4750 
L 1831 -91 
L 1331 -91 
L 4250 4750 
z
M 1428 4750 
Q 1922 4750 2215 4408 
Q 2509 4066 2509 3481 
Q 2509 2891 2217 2550 
Q 1925 2209 1428 2209 
Q 931 2209 642 2551 
Q 353 2894 353 3481 
Q 353 4063 643 4406 
Q 934 4750 1428 4750 
z
" id="DejaVuSans-25" transform="scale(0.015625)"/>
      </defs>
      <use xlink:href="#DejaVuSans-54"/>
      <use x="46.333984" xlink:href="#DejaVuSans-72"/>
      <use x="87.447266" xlink:href="#DejaVuSans-61"/>
      <use x="148.726562" xlink:href="#DejaVuSans-6e"/>
      <use x="212.105469" xlink:href="#DejaVuSans-73"/>
      <use x="264.205078" xlink:href="#DejaVuSans-6d"/>
      <use x="361.617188" xlink:href="#DejaVuSans-69"/>
      <use x="389.400391" xlink:href="#DejaVuSans-74"/>
      <use x="428.609375" xlink:href="#DejaVuSans-74"/>
      <use x="467.818359" xlink:href="#DejaVuSans-61"/>
      <use x="529.097656" xlink:href="#DejaVuSans-6e"/>
      <use x="592.476562" xlink:href="#DejaVuSans-63"/>
      <use x="647.457031" xlink:href="#DejaVuSans-65"/>
      <use x="708.980469" xlink:href="#DejaVuSans-20"/>
      <use x="740.767578" xlink:href="#DejaVuSans-28"/>
      <use x="779.78125" xlink:href="#DejaVuSans-25"/>
      <use x="874.800781" xlink:href="#DejaVuSans-29"/>
     </g>
    </g>
   </g>
   <g id="line2d_13">
    <path clip-path="url(#p220ab51d22)" d="M 60.301932 214.742702 
L 94.390659 214.6084 
L 175.351386 213.985072 
L 178.395023 213.637444 
L 180.829932 213.13206 
L 182.656114 212.571506 
L 184.482295 211.817634 
L 186.308477 210.836195 
L 188.134659 209.594531 
L 189.960841 208.063474 
L 191.787023 206.219199 
L 193.613205 204.044874 
L 195.439386 201.531889 
L 197.265568 198.680568 
L 199.700477 194.369985 
L 202.135386 189.521333 
L 204.570295 184.203207 
L 207.613932 177.025247 
L 211.875023 166.309558 
L 225.87575 130.418688 
L 230.136841 120.357568 
L 233.789205 112.349308 
L 236.832841 106.206561 
L 239.876477 100.613543 
L 242.311386 96.563906 
L 244.746295 92.901573 
L 247.181205 89.621314 
L 249.616114 86.704103 
L 252.051023 84.117416 
L 254.485932 81.816696 
L 257.529568 79.260815 
L 261.181932 76.509964 
L 272.139023 68.501769 
L 275.791386 65.479848 
L 280.052477 61.660455 
L 286.13975 55.856911 
L 296.488114 45.961994 
L 301.966659 41.027713 
L 306.836477 36.935964 
L 311.097568 33.637409 
L 315.358659 30.638398 
L 319.011023 28.323781 
L 322.663386 26.253295 
L 326.31575 24.429735 
L 329.968114 22.867828 
L 333.01175 21.800373 
L 335.446659 21.140251 
L 337.881568 20.706315 
L 339.70775 20.569661 
L 341.533932 20.628615 
L 343.360114 20.909394 
L 345.186295 21.428215 
L 347.012477 22.185927 
L 348.838659 23.164693 
L 351.273568 24.746924 
L 359.187023 30.307337 
L 361.013205 31.26758 
L 362.839386 32.004443 
L 364.665568 32.511025 
L 364.665568 32.511025 
" style="fill:none;stroke:#ffa500;stroke-linecap:square;stroke-width:1.5;"/>
   </g>
   <g id="line2d_14">
    <path clip-path="url(#p220ab51d22)" d="M 60.301932 214.726307 
L 88.303386 214.574052 
L 119.957205 214.185294 
L 150.393568 213.833688 
L 166.220477 213.782197 
L 172.916477 213.720015 
L 175.960114 213.500604 
L 178.395023 213.131153 
L 180.829932 212.501694 
L 182.656114 211.803089 
L 184.482295 210.864121 
L 186.308477 209.643302 
L 188.134659 208.101607 
L 189.960841 206.204852 
L 191.787023 203.925968 
L 193.613205 201.24697 
L 195.439386 198.160391 
L 197.265568 194.670036 
L 199.700477 189.415863 
L 202.135386 183.537092 
L 205.179023 175.455254 
L 208.831386 164.986439 
L 221.005932 129.316271 
L 224.049568 121.319646 
L 227.093205 114.009637 
L 229.528114 108.721348 
L 231.963023 103.965054 
L 234.397932 99.754929 
L 236.832841 96.087416 
L 238.659023 93.680392 
L 240.485205 91.550882 
L 242.920114 89.10658 
L 245.355023 87.057182 
L 247.789932 85.331909 
L 250.833568 83.513967 
L 254.485932 81.62742 
L 261.790659 77.91782 
L 265.443023 75.753114 
L 268.486659 73.704318 
L 272.139023 70.941854 
L 275.791386 67.881924 
L 280.661205 63.459678 
L 297.096841 48.150981 
L 303.792841 42.431227 
L 312.315023 35.468516 
L 317.793568 31.249159 
L 321.445932 28.704234 
L 324.489568 26.849656 
L 326.924477 25.594494 
L 329.359386 24.579156 
L 331.794295 23.82707 
L 334.229205 23.346419 
L 336.664114 23.124776 
L 339.099023 23.125317 
L 342.142659 23.347836 
L 349.447386 24.013155 
L 351.882295 23.999351 
L 354.317205 23.783735 
L 357.360841 23.243517 
L 361.621932 22.172824 
L 364.665568 21.453814 
L 364.665568 21.453814 
" style="fill:none;stroke:#008000;stroke-linecap:square;stroke-width:1.5;"/>
   </g>
   <g id="line2d_15">
    <path clip-path="url(#p220ab51d22)" d="M 60.301932 214.726307 
L 88.303386 214.574052 
L 119.957205 214.185294 
L 150.393568 213.833688 
L 166.220477 213.782197 
L 172.916477 213.720015 
L 175.960114 213.500604 
L 178.395023 213.131153 
L 180.829932 212.501694 
L 182.656114 211.803089 
L 184.482295 210.864121 
L 186.308477 209.643302 
L 188.134659 208.101607 
L 189.960841 206.204852 
L 191.787023 203.925968 
L 193.613205 201.24697 
L 195.439386 198.160391 
L 197.265568 194.670036 
L 199.700477 189.415863 
L 202.135386 183.537092 
L 205.179023 175.455254 
L 208.831386 164.986439 
L 221.005932 129.316271 
L 224.049568 121.319646 
L 227.093205 114.009637 
L 229.528114 108.721348 
L 231.963023 103.965054 
L 234.397932 99.754929 
L 236.832841 96.087416 
L 238.659023 93.680392 
L 240.485205 91.550882 
L 242.920114 89.10658 
L 245.355023 87.057182 
L 247.789932 85.331909 
L 250.833568 83.513967 
L 254.485932 81.62742 
L 261.790659 77.91782 
L 265.443023 75.753114 
L 268.486659 73.704318 
L 272.139023 70.941854 
L 275.791386 67.881924 
L 280.661205 63.459678 
L 297.096841 48.150981 
L 303.792841 42.431227 
L 312.315023 35.468516 
L 317.793568 31.249159 
L 321.445932 28.704234 
L 324.489568 26.849656 
L 326.924477 25.594494 
L 329.359386 24.579156 
L 331.794295 23.82707 
L 334.229205 23.346419 
L 336.664114 23.124776 
L 339.099023 23.125317 
L 342.142659 23.347836 
L 349.447386 24.013155 
L 351.882295 23.999351 
L 354.317205 23.783735 
L 357.360841 23.243517 
L 361.621932 22.172824 
L 364.665568 21.453814 
L 364.665568 21.453814 
" style="fill:none;stroke:#008080;stroke-linecap:square;stroke-width:1.5;"/>
   </g>
   <g id="line2d_16">
    <path clip-path="url(#p220ab51d22)" d="M 60.301932 214.726307 
L 88.303386 214.574052 
L 119.957205 214.185294 
L 150.393568 213.833688 
L 166.220477 213.782197 
L 172.916477 213.720015 
L 175.960114 213.500604 
L 178.395023 213.131153 
L 180.829932 212.501694 
L 182.656114 211.803089 
L 184.482295 210.864121 
L 186.308477 209.643302 
L 188.134659 208.101607 
L 189.960841 206.204852 
L 191.787023 203.925968 
L 193.613205 201.24697 
L 195.439386 198.160391 
L 197.265568 194.670036 
L 199.700477 189.415863 
L 202.135386 183.537092 
L 205.179023 175.455254 
L 208.831386 164.986439 
L 221.005932 129.316271 
L 224.049568 121.319646 
L 227.093205 114.009637 
L 229.528114 108.721348 
L 231.963023 103.965054 
L 234.397932 99.754929 
L 236.832841 96.087416 
L 238.659023 93.680392 
L 240.485205 91.550882 
L 242.920114 89.10658 
L 245.355023 87.057182 
L 247.789932 85.331909 
L 250.833568 83.513967 
L 254.485932 81.62742 
L 261.790659 77.91782 
L 265.443023 75.753114 
L 268.486659 73.704318 
L 272.139023 70.941854 
L 275.791386 67.881924 
L 280.661205 63.459678 
L 297.096841 48.150981 
L 303.792841 42.431227 
L 312.315023 35.468516 
L 317.793568 31.249159 
L 321.445932 28.704234 
L 324.489568 26.849656 
L 326.924477 25.594494 
L 329.359386 24.579156 
L 331.794295 23.82707 
L 334.229205 23.346419 
L 336.664114 23.124776 
L 339.099023 23.125317 
L 342.142659 23.347836 
L 349.447386 24.013155 
L 351.882295 23.999351 
L 354.317205 23.783735 
L 357.360841 23.243517 
L 361.621932 22.172824 
L 364.665568 21.453814 
L 364.665568 21.453814 
" style="fill:none;stroke:#4b0082;stroke-linecap:square;stroke-width:1.5;"/>
   </g>
   <g id="line2d_17">
    <path clip-path="url(#p220ab51d22)" d="M 60.301932 214.726307 
L 88.303386 214.574052 
L 119.957205 214.185294 
L 150.393568 213.833688 
L 166.220477 213.782197 
L 172.916477 213.720015 
L 175.960114 213.500604 
L 178.395023 213.131153 
L 180.829932 212.501694 
L 182.656114 211.803089 
L 184.482295 210.864121 
L 186.308477 209.643302 
L 188.134659 208.101607 
L 189.960841 206.204852 
L 191.787023 203.925968 
L 193.613205 201.24697 
L 195.439386 198.160391 
L 197.265568 194.670036 
L 199.700477 189.415863 
L 202.135386 183.537092 
L 205.179023 175.455254 
L 208.831386 164.986439 
L 221.005932 129.316271 
L 224.049568 121.319646 
L 227.093205 114.009637 
L 229.528114 108.721348 
L 231.963023 103.965054 
L 234.397932 99.754929 
L 236.832841 96.087416 
L 238.659023 93.680392 
L 240.485205 91.550882 
L 242.920114 89.10658 
L 245.355023 87.057182 
L 247.789932 85.331909 
L 250.833568 83.513967 
L 254.485932 81.62742 
L 261.790659 77.91782 
L 265.443023 75.753114 
L 268.486659 73.704318 
L 272.139023 70.941854 
L 275.791386 67.881924 
L 280.661205 63.459678 
L 297.096841 48.150981 
L 303.792841 42.431227 
L 312.315023 35.468516 
L 317.793568 31.249159 
L 321.445932 28.704234 
L 324.489568 26.849656 
L 326.924477 25.594494 
L 329.359386 24.579156 
L 331.794295 23.82707 
L 334.229205 23.346419 
L 336.664114 23.124776 
L 339.099023 23.125317 
L 342.142659 23.347836 
L 349.447386 24.013155 
L 351.882295 23.999351 
L 354.317205 23.783735 
L 357.360841 23.243517 
L 361.621932 22.172824 
L 364.665568 21.453814 
L 364.665568 21.453814 
" style="fill:none;stroke:#0000ff;stroke-linecap:square;stroke-width:1.5;"/>
   </g>
   <g id="line2d_18">
    <path clip-path="url(#p220ab51d22)" d="M 60.301932 214.756364 
L 98.043023 214.632143 
L 167.437932 214.329397 
L 174.133932 214.294768 
L 177.177568 214.092682 
L 179.612477 213.744575 
L 182.047386 213.149217 
L 183.873568 212.489351 
L 185.69975 211.605122 
L 187.525932 210.460032 
L 189.352114 209.020601 
L 191.178295 207.258526 
L 193.004477 205.15267 
L 194.830659 202.690676 
L 196.656841 199.870044 
L 198.483023 196.698565 
L 200.917932 191.956398 
L 203.352841 186.690612 
L 206.396477 179.510752 
L 210.048841 170.290765 
L 222.832114 137.416551 
L 226.484477 128.819791 
L 229.528114 122.128214 
L 232.57175 115.928339 
L 235.615386 110.270798 
L 238.050295 106.162671 
L 240.485205 102.440573 
L 242.920114 99.108424 
L 245.355023 96.159367 
L 247.789932 93.574754 
L 250.224841 91.323875 
L 252.65975 89.364814 
L 255.703386 87.248073 
L 259.35575 85.045238 
L 270.921568 78.37562 
L 274.573932 75.852614 
L 278.226295 73.023131 
L 281.878659 69.909788 
L 286.748477 65.431728 
L 303.792841 49.386889 
L 309.271386 44.710157 
L 314.141205 40.835459 
L 319.61975 36.775187 
L 325.098295 33.008032 
L 329.359386 30.323529 
L 333.01175 28.290525 
L 336.055386 26.885442 
L 338.490295 26.021187 
L 340.925205 25.442592 
L 342.751386 25.214847 
L 344.577568 25.162686 
L 347.012477 25.336127 
L 350.056114 25.841206 
L 361.621932 28.16047 
L 364.665568 28.467353 
L 364.665568 28.467353 
" style="fill:none;stroke:#c0c0c0;stroke-linecap:square;stroke-width:1.5;"/>
   </g>
   <g id="line2d_19">
    <path clip-path="url(#p220ab51d22)" d="M 60.301932 214.73483 
L 93.781932 214.600835 
L 167.437932 214.217393 
L 173.525205 214.159558 
L 176.568841 213.9284 
L 179.00375 213.540946 
L 181.438659 212.887769 
L 183.264841 212.170299 
L 185.091023 211.21493 
L 186.917205 209.984362 
L 188.743386 208.444781 
L 190.569568 206.568085 
L 192.39575 204.333924 
L 194.221932 201.73131 
L 196.048114 198.759617 
L 197.874295 195.428871 
L 200.309205 190.465728 
L 202.744114 184.974116 
L 205.78775 177.512062 
L 210.048841 166.330073 
L 221.614659 135.527546 
L 225.267023 126.532407 
L 228.919386 118.160014 
L 231.963023 111.747047 
L 235.006659 105.914531 
L 237.441568 101.700508 
L 239.876477 97.905511 
L 242.311386 94.532434 
L 244.746295 91.569542 
L 247.181205 88.989585 
L 249.616114 86.750475 
L 252.051023 84.797344 
L 255.094659 82.65933 
L 259.35575 79.988932 
L 266.05175 75.802855 
L 269.704114 73.225479 
L 273.356477 70.332779 
L 277.008841 67.116188 
L 281.269932 63.018206 
L 287.357205 56.789619 
L 295.879386 48.077087 
L 301.357932 42.801427 
L 306.22775 38.398988 
L 311.097568 34.267114 
L 315.967386 30.408864 
L 320.228477 27.286898 
L 323.880841 24.856414 
L 326.924477 23.066542 
L 329.968114 21.558181 
L 332.403023 20.598503 
L 334.837932 19.888345 
L 337.272841 19.440145 
L 339.70775 19.245445 
L 342.142659 19.274927 
L 345.186295 19.557266 
L 348.838659 20.133734 
L 353.708477 21.140956 
L 362.230659 22.989359 
L 364.665568 23.307959 
L 364.665568 23.307959 
" style="fill:none;stroke:#000000;stroke-linecap:square;stroke-width:1.5;"/>
   </g>
   <g id="line2d_20">
    <path clip-path="url(#p220ab51d22)" d="M 60.301932 214.692721 
L 91.95575 214.551377 
L 167.437932 214.099109 
L 173.525205 214.033878 
L 176.568841 213.79991 
L 179.00375 213.412271 
L 181.438659 212.762276 
L 183.264841 212.050438 
L 185.091023 211.10439 
L 186.917205 209.887695 
L 188.743386 208.367409 
L 190.569568 206.516269 
L 192.39575 204.314691 
L 194.221932 201.75235 
L 196.048114 198.829147 
L 197.874295 195.555468 
L 200.309205 190.682024 
L 202.744114 185.295431 
L 205.78775 177.984627 
L 210.048841 167.044728 
L 221.005932 138.45533 
L 225.267023 128.093689 
L 228.919386 119.788235 
L 231.963023 113.34311 
L 235.006659 107.38566 
L 238.050295 101.962819 
L 240.485205 98.033442 
L 242.920114 94.477564 
L 245.355023 91.293177 
L 247.789932 88.466146 
L 250.224841 85.969634 
L 252.65975 83.764643 
L 255.703386 81.342748 
L 259.35575 78.779964 
L 271.530295 70.618707 
L 275.182659 67.759227 
L 278.835023 64.618818 
L 283.096114 60.656189 
L 290.400841 53.475104 
L 297.705568 46.386018 
L 302.575386 41.963067 
L 306.836477 38.362846 
L 311.706295 34.555308 
L 317.793568 30.125853 
L 328.141932 22.902694 
L 331.794295 20.567246 
L 334.229205 19.21539 
L 336.664114 18.126391 
L 338.490295 17.536149 
L 340.316477 17.178906 
L 342.142659 17.083636 
L 343.968841 17.272643 
L 345.795023 17.760468 
L 347.621205 18.550062 
L 349.447386 19.626385 
L 351.273568 20.952286 
L 353.708477 23.007449 
L 359.79575 28.356332 
L 361.621932 29.62194 
L 363.448114 30.591435 
L 364.665568 31.060962 
L 364.665568 31.060962 
" style="fill:none;stroke:#ffd700;stroke-linecap:square;stroke-width:1.5;"/>
   </g>
   <g id="patch_3">
    <path d="M 45.08375 224.64 
L 45.08375 7.2 
" style="fill:none;stroke:#000000;stroke-linecap:square;stroke-linejoin:miter;stroke-width:0.8;"/>
   </g>
   <g id="patch_4">
    <path d="M 379.88375 224.64 
L 379.88375 7.2 
" style="fill:none;stroke:#000000;stroke-linecap:square;stroke-linejoin:miter;stroke-width:0.8;"/>
   </g>
   <g id="patch_5">
    <path d="M 45.08375 224.64 
L 379.88375 224.64 
" style="fill:none;stroke:#000000;stroke-linecap:square;stroke-linejoin:miter;stroke-width:0.8;"/>
   </g>
   <g id="patch_6">
    <path d="M 45.08375 7.2 
L 379.88375 7.2 
" style="fill:none;stroke:#000000;stroke-linecap:square;stroke-linejoin:miter;stroke-width:0.8;"/>
   </g>
   <g id="legend_1">
    <g id="patch_7">
     <path d="M 52.08375 132.625 
L 138.380625 132.625 
Q 140.380625 132.625 140.380625 130.625 
L 140.380625 14.2 
Q 140.380625 12.2 138.380625 12.2 
L 52.08375 12.2 
Q 50.08375 12.2 50.08375 14.2 
L 50.08375 130.625 
Q 50.08375 132.625 52.08375 132.625 
z
" style="fill:#ffffff;opacity:0.8;stroke:#cccccc;stroke-linejoin:miter;"/>
    </g>
    <g id="line2d_21">
     <path d="M 54.08375 20.298437 
L 74.08375 20.298437 
" style="fill:none;stroke:#ffa500;stroke-linecap:square;stroke-width:1.5;"/>
    </g>
    <g id="line2d_22"/>
    <g id="text_15">
     <!-- Day 2 -->
     <g transform="translate(82.08375 23.798437)scale(0.1 -0.1)">
      <defs>
       <path d="M 1259 4147 
L 1259 519 
L 2022 519 
Q 2988 519 3436 956 
Q 3884 1394 3884 2338 
Q 3884 3275 3436 3711 
Q 2988 4147 2022 4147 
L 1259 4147 
z
M 628 4666 
L 1925 4666 
Q 3281 4666 3915 4102 
Q 4550 3538 4550 2338 
Q 4550 1131 3912 565 
Q 3275 0 1925 0 
L 628 0 
L 628 4666 
z
" id="DejaVuSans-44" transform="scale(0.015625)"/>
       <path d="M 2059 -325 
Q 1816 -950 1584 -1140 
Q 1353 -1331 966 -1331 
L 506 -1331 
L 506 -850 
L 844 -850 
Q 1081 -850 1212 -737 
Q 1344 -625 1503 -206 
L 1606 56 
L 191 3500 
L 800 3500 
L 1894 763 
L 2988 3500 
L 3597 3500 
L 2059 -325 
z
" id="DejaVuSans-79" transform="scale(0.015625)"/>
      </defs>
      <use xlink:href="#DejaVuSans-44"/>
      <use x="77.001953" xlink:href="#DejaVuSans-61"/>
      <use x="138.28125" xlink:href="#DejaVuSans-79"/>
      <use x="197.460938" xlink:href="#DejaVuSans-20"/>
      <use x="229.248047" xlink:href="#DejaVuSans-32"/>
     </g>
    </g>
    <g id="line2d_23">
     <path d="M 54.08375 34.976562 
L 74.08375 34.976562 
" style="fill:none;stroke:#008000;stroke-linecap:square;stroke-width:1.5;"/>
    </g>
    <g id="line2d_24"/>
    <g id="text_16">
     <!-- Day 20 AM -->
     <g transform="translate(82.08375 38.476562)scale(0.1 -0.1)">
      <defs>
       <path d="M 2188 4044 
L 1331 1722 
L 3047 1722 
L 2188 4044 
z
M 1831 4666 
L 2547 4666 
L 4325 0 
L 3669 0 
L 3244 1197 
L 1141 1197 
L 716 0 
L 50 0 
L 1831 4666 
z
" id="DejaVuSans-41" transform="scale(0.015625)"/>
       <path d="M 628 4666 
L 1569 4666 
L 2759 1491 
L 3956 4666 
L 4897 4666 
L 4897 0 
L 4281 0 
L 4281 4097 
L 3078 897 
L 2444 897 
L 1241 4097 
L 1241 0 
L 628 0 
L 628 4666 
z
" id="DejaVuSans-4d" transform="scale(0.015625)"/>
      </defs>
      <use xlink:href="#DejaVuSans-44"/>
      <use x="77.001953" xlink:href="#DejaVuSans-61"/>
      <use x="138.28125" xlink:href="#DejaVuSans-79"/>
      <use x="197.460938" xlink:href="#DejaVuSans-20"/>
      <use x="229.248047" xlink:href="#DejaVuSans-32"/>
      <use x="292.871094" xlink:href="#DejaVuSans-30"/>
      <use x="356.494141" xlink:href="#DejaVuSans-20"/>
      <use x="388.28125" xlink:href="#DejaVuSans-41"/>
      <use x="456.689453" xlink:href="#DejaVuSans-4d"/>
     </g>
    </g>
    <g id="line2d_25">
     <path d="M 54.08375 49.654687 
L 74.08375 49.654687 
" style="fill:none;stroke:#008080;stroke-linecap:square;stroke-width:1.5;"/>
    </g>
    <g id="line2d_26"/>
    <g id="text_17">
     <!-- Day 27 -->
     <g transform="translate(82.08375 53.154687)scale(0.1 -0.1)">
      <use xlink:href="#DejaVuSans-44"/>
      <use x="77.001953" xlink:href="#DejaVuSans-61"/>
      <use x="138.28125" xlink:href="#DejaVuSans-79"/>
      <use x="197.460938" xlink:href="#DejaVuSans-20"/>
      <use x="229.248047" xlink:href="#DejaVuSans-32"/>
      <use x="292.871094" xlink:href="#DejaVuSans-37"/>
     </g>
    </g>
    <g id="line2d_27">
     <path d="M 54.08375 64.332812 
L 74.08375 64.332812 
" style="fill:none;stroke:#4b0082;stroke-linecap:square;stroke-width:1.5;"/>
    </g>
    <g id="line2d_28"/>
    <g id="text_18">
     <!-- Day 43 -->
     <g transform="translate(82.08375 67.832812)scale(0.1 -0.1)">
      <use xlink:href="#DejaVuSans-44"/>
      <use x="77.001953" xlink:href="#DejaVuSans-61"/>
      <use x="138.28125" xlink:href="#DejaVuSans-79"/>
      <use x="197.460938" xlink:href="#DejaVuSans-20"/>
      <use x="229.248047" xlink:href="#DejaVuSans-34"/>
      <use x="292.871094" xlink:href="#DejaVuSans-33"/>
     </g>
    </g>
    <g id="line2d_29">
     <path d="M 54.08375 79.010937 
L 74.08375 79.010937 
" style="fill:none;stroke:#0000ff;stroke-linecap:square;stroke-width:1.5;"/>
    </g>
    <g id="line2d_30"/>
    <g id="text_19">
     <!-- Day 51 -->
     <g transform="translate(82.08375 82.510937)scale(0.1 -0.1)">
      <use xlink:href="#DejaVuSans-44"/>
      <use x="77.001953" xlink:href="#DejaVuSans-61"/>
      <use x="138.28125" xlink:href="#DejaVuSans-79"/>
      <use x="197.460938" xlink:href="#DejaVuSans-20"/>
      <use x="229.248047" xlink:href="#DejaVuSans-35"/>
      <use x="292.871094" xlink:href="#DejaVuSans-31"/>
     </g>
    </g>
    <g id="line2d_31">
     <path d="M 54.08375 93.689062 
L 74.08375 93.689062 
" style="fill:none;stroke:#c0c0c0;stroke-linecap:square;stroke-width:1.5;"/>
    </g>
    <g id="line2d_32"/>
    <g id="text_20">
     <!-- Day 6 -->
     <g transform="translate(82.08375 97.189062)scale(0.1 -0.1)">
      <use xlink:href="#DejaVuSans-44"/>
      <use x="77.001953" xlink:href="#DejaVuSans-61"/>
      <use x="138.28125" xlink:href="#DejaVuSans-79"/>
      <use x="197.460938" xlink:href="#DejaVuSans-20"/>
      <use x="229.248047" xlink:href="#DejaVuSans-36"/>
     </g>
    </g>
    <g id="line2d_33">
     <path d="M 54.08375 108.367187 
L 74.08375 108.367187 
" style="fill:none;stroke:#000000;stroke-linecap:square;stroke-width:1.5;"/>
    </g>
    <g id="line2d_34"/>
    <g id="text_21">
     <!-- Day 7 -->
     <g transform="translate(82.08375 111.867187)scale(0.1 -0.1)">
      <use xlink:href="#DejaVuSans-44"/>
      <use x="77.001953" xlink:href="#DejaVuSans-61"/>
      <use x="138.28125" xlink:href="#DejaVuSans-79"/>
      <use x="197.460938" xlink:href="#DejaVuSans-20"/>
      <use x="229.248047" xlink:href="#DejaVuSans-37"/>
     </g>
    </g>
    <g id="line2d_35">
     <path d="M 54.08375 123.045312 
L 74.08375 123.045312 
" style="fill:none;stroke:#ffd700;stroke-linecap:square;stroke-width:1.5;"/>
    </g>
    <g id="line2d_36"/>
    <g id="text_22">
     <!-- Day 9 -->
     <g transform="translate(82.08375 126.545312)scale(0.1 -0.1)">
      <use xlink:href="#DejaVuSans-44"/>
      <use x="77.001953" xlink:href="#DejaVuSans-61"/>
      <use x="138.28125" xlink:href="#DejaVuSans-79"/>
      <use x="197.460938" xlink:href="#DejaVuSans-20"/>
      <use x="229.248047" xlink:href="#DejaVuSans-39"/>
     </g>
    </g>
   </g>
  </g>
 </g>
 <defs>
  <clipPath id="p220ab51d22">
   <rect height="217.44" width="334.8" x="45.08375" y="7.2"/>
  </clipPath>
 </defs>
</svg>
