<?xml version="1.0" encoding="utf-8" standalone="no"?>
<!DOCTYPE svg PUBLIC "-//W3C//DTD SVG 1.1//EN"
  "http://www.w3.org/Graphics/SVG/1.1/DTD/svg11.dtd">
<svg height="266.0675pt" version="1.1" viewBox="0 0 387.08375 266.0675" width="387.08375pt" xmlns="http://www.w3.org/2000/svg" xmlns:xlink="http://www.w3.org/1999/xlink">
 <metadata>
  <rdf:RDF xmlns:cc="http://creativecommons.org/ns#" xmlns:dc="http://purl.org/dc/elements/1.1/" xmlns:rdf="http://www.w3.org/1999/02/22-rdf-syntax-ns#">
   <cc:Work>
    <dc:type rdf:resource="http://purl.org/dc/dcmitype/StillImage"/>
    <dc:date>2023-01-09T04:30:50.458754</dc:date>
    <dc:format>image/svg+xml</dc:format>
    <dc:creator>
     <cc:Agent>
      <dc:title>Matplotlib v3.4.3, https://matplotlib.org/</dc:title>
     </cc:Agent>
    </dc:creator>
   </cc:Work>
  </rdf:RDF>
 </metadata>
 <defs>
  <style type="text/css">*{stroke-linecap:butt;stroke-linejoin:round;}</style>
 </defs>
 <g id="figure_1">
  <g id="patch_1">
   <path d="M 0 266.0675 
L 387.08375 266.0675 
L 387.08375 0 
L 0 0 
z
" style="fill:#ffffff;"/>
  </g>
  <g id="axes_1">
   <g id="patch_2">
    <path d="M 45.08375 224.64 
L 379.88375 224.64 
L 379.88375 7.2 
L 45.08375 7.2 
z
" style="fill:#ffffff;"/>
   </g>
   <g id="matplotlib.axis_1">
    <g id="xtick_1">
     <g id="line2d_1">
      <defs>
       <path d="M 0 0 
L 0 3.5 
" id="m496ad6d70e" style="stroke:#000000;stroke-width:0.8;"/>
      </defs>
      <g>
       <use style="stroke:#000000;stroke-width:0.8;" x="60.301932" xlink:href="#m496ad6d70e" y="224.64"/>
      </g>
     </g>
     <g id="text_1">
      <!-- 400 -->
      <g transform="translate(48.849432 240.758125)scale(0.12 -0.12)">
       <defs>
        <path d="M 2419 4116 
L 825 1625 
L 2419 1625 
L 2419 4116 
z
M 2253 4666 
L 3047 4666 
L 3047 1625 
L 3713 1625 
L 3713 1100 
L 3047 1100 
L 3047 0 
L 2419 0 
L 2419 1100 
L 313 1100 
L 313 1709 
L 2253 4666 
z
" id="DejaVuSans-34" transform="scale(0.015625)"/>
        <path d="M 2034 4250 
Q 1547 4250 1301 3770 
Q 1056 3291 1056 2328 
Q 1056 1369 1301 889 
Q 1547 409 2034 409 
Q 2525 409 2770 889 
Q 3016 1369 3016 2328 
Q 3016 3291 2770 3770 
Q 2525 4250 2034 4250 
z
M 2034 4750 
Q 2819 4750 3233 4129 
Q 3647 3509 3647 2328 
Q 3647 1150 3233 529 
Q 2819 -91 2034 -91 
Q 1250 -91 836 529 
Q 422 1150 422 2328 
Q 422 3509 836 4129 
Q 1250 4750 2034 4750 
z
" id="DejaVuSans-30" transform="scale(0.015625)"/>
       </defs>
       <use xlink:href="#DejaVuSans-34"/>
       <use x="63.623047" xlink:href="#DejaVuSans-30"/>
       <use x="127.246094" xlink:href="#DejaVuSans-30"/>
      </g>
     </g>
    </g>
    <g id="xtick_2">
     <g id="line2d_2">
      <g>
       <use style="stroke:#000000;stroke-width:0.8;" x="121.174659" xlink:href="#m496ad6d70e" y="224.64"/>
      </g>
     </g>
     <g id="text_2">
      <!-- 500 -->
      <g transform="translate(109.722159 240.758125)scale(0.12 -0.12)">
       <defs>
        <path d="M 691 4666 
L 3169 4666 
L 3169 4134 
L 1269 4134 
L 1269 2991 
Q 1406 3038 1543 3061 
Q 1681 3084 1819 3084 
Q 2600 3084 3056 2656 
Q 3513 2228 3513 1497 
Q 3513 744 3044 326 
Q 2575 -91 1722 -91 
Q 1428 -91 1123 -41 
Q 819 9 494 109 
L 494 744 
Q 775 591 1075 516 
Q 1375 441 1709 441 
Q 2250 441 2565 725 
Q 2881 1009 2881 1497 
Q 2881 1984 2565 2268 
Q 2250 2553 1709 2553 
Q 1456 2553 1204 2497 
Q 953 2441 691 2322 
L 691 4666 
z
" id="DejaVuSans-35" transform="scale(0.015625)"/>
       </defs>
       <use xlink:href="#DejaVuSans-35"/>
       <use x="63.623047" xlink:href="#DejaVuSans-30"/>
       <use x="127.246094" xlink:href="#DejaVuSans-30"/>
      </g>
     </g>
    </g>
    <g id="xtick_3">
     <g id="line2d_3">
      <g>
       <use style="stroke:#000000;stroke-width:0.8;" x="182.047386" xlink:href="#m496ad6d70e" y="224.64"/>
      </g>
     </g>
     <g id="text_3">
      <!-- 600 -->
      <g transform="translate(170.594886 240.758125)scale(0.12 -0.12)">
       <defs>
        <path d="M 2113 2584 
Q 1688 2584 1439 2293 
Q 1191 2003 1191 1497 
Q 1191 994 1439 701 
Q 1688 409 2113 409 
Q 2538 409 2786 701 
Q 3034 994 3034 1497 
Q 3034 2003 2786 2293 
Q 2538 2584 2113 2584 
z
M 3366 4563 
L 3366 3988 
Q 3128 4100 2886 4159 
Q 2644 4219 2406 4219 
Q 1781 4219 1451 3797 
Q 1122 3375 1075 2522 
Q 1259 2794 1537 2939 
Q 1816 3084 2150 3084 
Q 2853 3084 3261 2657 
Q 3669 2231 3669 1497 
Q 3669 778 3244 343 
Q 2819 -91 2113 -91 
Q 1303 -91 875 529 
Q 447 1150 447 2328 
Q 447 3434 972 4092 
Q 1497 4750 2381 4750 
Q 2619 4750 2861 4703 
Q 3103 4656 3366 4563 
z
" id="DejaVuSans-36" transform="scale(0.015625)"/>
       </defs>
       <use xlink:href="#DejaVuSans-36"/>
       <use x="63.623047" xlink:href="#DejaVuSans-30"/>
       <use x="127.246094" xlink:href="#DejaVuSans-30"/>
      </g>
     </g>
    </g>
    <g id="xtick_4">
     <g id="line2d_4">
      <g>
       <use style="stroke:#000000;stroke-width:0.8;" x="242.920114" xlink:href="#m496ad6d70e" y="224.64"/>
      </g>
     </g>
     <g id="text_4">
      <!-- 700 -->
      <g transform="translate(231.467614 240.758125)scale(0.12 -0.12)">
       <defs>
        <path d="M 525 4666 
L 3525 4666 
L 3525 4397 
L 1831 0 
L 1172 0 
L 2766 4134 
L 525 4134 
L 525 4666 
z
" id="DejaVuSans-37" transform="scale(0.015625)"/>
       </defs>
       <use xlink:href="#DejaVuSans-37"/>
       <use x="63.623047" xlink:href="#DejaVuSans-30"/>
       <use x="127.246094" xlink:href="#DejaVuSans-30"/>
      </g>
     </g>
    </g>
    <g id="xtick_5">
     <g id="line2d_5">
      <g>
       <use style="stroke:#000000;stroke-width:0.8;" x="303.792841" xlink:href="#m496ad6d70e" y="224.64"/>
      </g>
     </g>
     <g id="text_5">
      <!-- 800 -->
      <g transform="translate(292.340341 240.758125)scale(0.12 -0.12)">
       <defs>
        <path d="M 2034 2216 
Q 1584 2216 1326 1975 
Q 1069 1734 1069 1313 
Q 1069 891 1326 650 
Q 1584 409 2034 409 
Q 2484 409 2743 651 
Q 3003 894 3003 1313 
Q 3003 1734 2745 1975 
Q 2488 2216 2034 2216 
z
M 1403 2484 
Q 997 2584 770 2862 
Q 544 3141 544 3541 
Q 544 4100 942 4425 
Q 1341 4750 2034 4750 
Q 2731 4750 3128 4425 
Q 3525 4100 3525 3541 
Q 3525 3141 3298 2862 
Q 3072 2584 2669 2484 
Q 3125 2378 3379 2068 
Q 3634 1759 3634 1313 
Q 3634 634 3220 271 
Q 2806 -91 2034 -91 
Q 1263 -91 848 271 
Q 434 634 434 1313 
Q 434 1759 690 2068 
Q 947 2378 1403 2484 
z
M 1172 3481 
Q 1172 3119 1398 2916 
Q 1625 2713 2034 2713 
Q 2441 2713 2670 2916 
Q 2900 3119 2900 3481 
Q 2900 3844 2670 4047 
Q 2441 4250 2034 4250 
Q 1625 4250 1398 4047 
Q 1172 3844 1172 3481 
z
" id="DejaVuSans-38" transform="scale(0.015625)"/>
       </defs>
       <use xlink:href="#DejaVuSans-38"/>
       <use x="63.623047" xlink:href="#DejaVuSans-30"/>
       <use x="127.246094" xlink:href="#DejaVuSans-30"/>
      </g>
     </g>
    </g>
    <g id="xtick_6">
     <g id="line2d_6">
      <g>
       <use style="stroke:#000000;stroke-width:0.8;" x="364.665568" xlink:href="#m496ad6d70e" y="224.64"/>
      </g>
     </g>
     <g id="text_6">
      <!-- 900 -->
      <g transform="translate(353.213068 240.758125)scale(0.12 -0.12)">
       <defs>
        <path d="M 703 97 
L 703 672 
Q 941 559 1184 500 
Q 1428 441 1663 441 
Q 2288 441 2617 861 
Q 2947 1281 2994 2138 
Q 2813 1869 2534 1725 
Q 2256 1581 1919 1581 
Q 1219 1581 811 2004 
Q 403 2428 403 3163 
Q 403 3881 828 4315 
Q 1253 4750 1959 4750 
Q 2769 4750 3195 4129 
Q 3622 3509 3622 2328 
Q 3622 1225 3098 567 
Q 2575 -91 1691 -91 
Q 1453 -91 1209 -44 
Q 966 3 703 97 
z
M 1959 2075 
Q 2384 2075 2632 2365 
Q 2881 2656 2881 3163 
Q 2881 3666 2632 3958 
Q 2384 4250 1959 4250 
Q 1534 4250 1286 3958 
Q 1038 3666 1038 3163 
Q 1038 2656 1286 2365 
Q 1534 2075 1959 2075 
z
" id="DejaVuSans-39" transform="scale(0.015625)"/>
       </defs>
       <use xlink:href="#DejaVuSans-39"/>
       <use x="63.623047" xlink:href="#DejaVuSans-30"/>
       <use x="127.246094" xlink:href="#DejaVuSans-30"/>
      </g>
     </g>
    </g>
    <g id="text_7">
     <!-- Wavelength (nm) -->
     <g transform="translate(160.653125 256.371875)scale(0.12 -0.12)">
      <defs>
       <path d="M 213 4666 
L 850 4666 
L 1831 722 
L 2809 4666 
L 3519 4666 
L 4500 722 
L 5478 4666 
L 6119 4666 
L 4947 0 
L 4153 0 
L 3169 4050 
L 2175 0 
L 1381 0 
L 213 4666 
z
" id="DejaVuSans-57" transform="scale(0.015625)"/>
       <path d="M 2194 1759 
Q 1497 1759 1228 1600 
Q 959 1441 959 1056 
Q 959 750 1161 570 
Q 1363 391 1709 391 
Q 2188 391 2477 730 
Q 2766 1069 2766 1631 
L 2766 1759 
L 2194 1759 
z
M 3341 1997 
L 3341 0 
L 2766 0 
L 2766 531 
Q 2569 213 2275 61 
Q 1981 -91 1556 -91 
Q 1019 -91 701 211 
Q 384 513 384 1019 
Q 384 1609 779 1909 
Q 1175 2209 1959 2209 
L 2766 2209 
L 2766 2266 
Q 2766 2663 2505 2880 
Q 2244 3097 1772 3097 
Q 1472 3097 1187 3025 
Q 903 2953 641 2809 
L 641 3341 
Q 956 3463 1253 3523 
Q 1550 3584 1831 3584 
Q 2591 3584 2966 3190 
Q 3341 2797 3341 1997 
z
" id="DejaVuSans-61" transform="scale(0.015625)"/>
       <path d="M 191 3500 
L 800 3500 
L 1894 563 
L 2988 3500 
L 3597 3500 
L 2284 0 
L 1503 0 
L 191 3500 
z
" id="DejaVuSans-76" transform="scale(0.015625)"/>
       <path d="M 3597 1894 
L 3597 1613 
L 953 1613 
Q 991 1019 1311 708 
Q 1631 397 2203 397 
Q 2534 397 2845 478 
Q 3156 559 3463 722 
L 3463 178 
Q 3153 47 2828 -22 
Q 2503 -91 2169 -91 
Q 1331 -91 842 396 
Q 353 884 353 1716 
Q 353 2575 817 3079 
Q 1281 3584 2069 3584 
Q 2775 3584 3186 3129 
Q 3597 2675 3597 1894 
z
M 3022 2063 
Q 3016 2534 2758 2815 
Q 2500 3097 2075 3097 
Q 1594 3097 1305 2825 
Q 1016 2553 972 2059 
L 3022 2063 
z
" id="DejaVuSans-65" transform="scale(0.015625)"/>
       <path d="M 603 4863 
L 1178 4863 
L 1178 0 
L 603 0 
L 603 4863 
z
" id="DejaVuSans-6c" transform="scale(0.015625)"/>
       <path d="M 3513 2113 
L 3513 0 
L 2938 0 
L 2938 2094 
Q 2938 2591 2744 2837 
Q 2550 3084 2163 3084 
Q 1697 3084 1428 2787 
Q 1159 2491 1159 1978 
L 1159 0 
L 581 0 
L 581 3500 
L 1159 3500 
L 1159 2956 
Q 1366 3272 1645 3428 
Q 1925 3584 2291 3584 
Q 2894 3584 3203 3211 
Q 3513 2838 3513 2113 
z
" id="DejaVuSans-6e" transform="scale(0.015625)"/>
       <path d="M 2906 1791 
Q 2906 2416 2648 2759 
Q 2391 3103 1925 3103 
Q 1463 3103 1205 2759 
Q 947 2416 947 1791 
Q 947 1169 1205 825 
Q 1463 481 1925 481 
Q 2391 481 2648 825 
Q 2906 1169 2906 1791 
z
M 3481 434 
Q 3481 -459 3084 -895 
Q 2688 -1331 1869 -1331 
Q 1566 -1331 1297 -1286 
Q 1028 -1241 775 -1147 
L 775 -588 
Q 1028 -725 1275 -790 
Q 1522 -856 1778 -856 
Q 2344 -856 2625 -561 
Q 2906 -266 2906 331 
L 2906 616 
Q 2728 306 2450 153 
Q 2172 0 1784 0 
Q 1141 0 747 490 
Q 353 981 353 1791 
Q 353 2603 747 3093 
Q 1141 3584 1784 3584 
Q 2172 3584 2450 3431 
Q 2728 3278 2906 2969 
L 2906 3500 
L 3481 3500 
L 3481 434 
z
" id="DejaVuSans-67" transform="scale(0.015625)"/>
       <path d="M 1172 4494 
L 1172 3500 
L 2356 3500 
L 2356 3053 
L 1172 3053 
L 1172 1153 
Q 1172 725 1289 603 
Q 1406 481 1766 481 
L 2356 481 
L 2356 0 
L 1766 0 
Q 1100 0 847 248 
Q 594 497 594 1153 
L 594 3053 
L 172 3053 
L 172 3500 
L 594 3500 
L 594 4494 
L 1172 4494 
z
" id="DejaVuSans-74" transform="scale(0.015625)"/>
       <path d="M 3513 2113 
L 3513 0 
L 2938 0 
L 2938 2094 
Q 2938 2591 2744 2837 
Q 2550 3084 2163 3084 
Q 1697 3084 1428 2787 
Q 1159 2491 1159 1978 
L 1159 0 
L 581 0 
L 581 4863 
L 1159 4863 
L 1159 2956 
Q 1366 3272 1645 3428 
Q 1925 3584 2291 3584 
Q 2894 3584 3203 3211 
Q 3513 2838 3513 2113 
z
" id="DejaVuSans-68" transform="scale(0.015625)"/>
       <path id="DejaVuSans-20" transform="scale(0.015625)"/>
       <path d="M 1984 4856 
Q 1566 4138 1362 3434 
Q 1159 2731 1159 2009 
Q 1159 1288 1364 580 
Q 1569 -128 1984 -844 
L 1484 -844 
Q 1016 -109 783 600 
Q 550 1309 550 2009 
Q 550 2706 781 3412 
Q 1013 4119 1484 4856 
L 1984 4856 
z
" id="DejaVuSans-28" transform="scale(0.015625)"/>
       <path d="M 3328 2828 
Q 3544 3216 3844 3400 
Q 4144 3584 4550 3584 
Q 5097 3584 5394 3201 
Q 5691 2819 5691 2113 
L 5691 0 
L 5113 0 
L 5113 2094 
Q 5113 2597 4934 2840 
Q 4756 3084 4391 3084 
Q 3944 3084 3684 2787 
Q 3425 2491 3425 1978 
L 3425 0 
L 2847 0 
L 2847 2094 
Q 2847 2600 2669 2842 
Q 2491 3084 2119 3084 
Q 1678 3084 1418 2786 
Q 1159 2488 1159 1978 
L 1159 0 
L 581 0 
L 581 3500 
L 1159 3500 
L 1159 2956 
Q 1356 3278 1631 3431 
Q 1906 3584 2284 3584 
Q 2666 3584 2933 3390 
Q 3200 3197 3328 2828 
z
" id="DejaVuSans-6d" transform="scale(0.015625)"/>
       <path d="M 513 4856 
L 1013 4856 
Q 1481 4119 1714 3412 
Q 1947 2706 1947 2009 
Q 1947 1309 1714 600 
Q 1481 -109 1013 -844 
L 513 -844 
Q 928 -128 1133 580 
Q 1338 1288 1338 2009 
Q 1338 2731 1133 3434 
Q 928 4138 513 4856 
z
" id="DejaVuSans-29" transform="scale(0.015625)"/>
      </defs>
      <use xlink:href="#DejaVuSans-57"/>
      <use x="92.501953" xlink:href="#DejaVuSans-61"/>
      <use x="153.78125" xlink:href="#DejaVuSans-76"/>
      <use x="212.960938" xlink:href="#DejaVuSans-65"/>
      <use x="274.484375" xlink:href="#DejaVuSans-6c"/>
      <use x="302.267578" xlink:href="#DejaVuSans-65"/>
      <use x="363.791016" xlink:href="#DejaVuSans-6e"/>
      <use x="427.169922" xlink:href="#DejaVuSans-67"/>
      <use x="490.646484" xlink:href="#DejaVuSans-74"/>
      <use x="529.855469" xlink:href="#DejaVuSans-68"/>
      <use x="593.234375" xlink:href="#DejaVuSans-20"/>
      <use x="625.021484" xlink:href="#DejaVuSans-28"/>
      <use x="664.035156" xlink:href="#DejaVuSans-6e"/>
      <use x="727.414062" xlink:href="#DejaVuSans-6d"/>
      <use x="824.826172" xlink:href="#DejaVuSans-29"/>
     </g>
    </g>
   </g>
   <g id="matplotlib.axis_2">
    <g id="ytick_1">
     <g id="line2d_7">
      <defs>
       <path d="M 0 0 
L -3.5 0 
" id="md68473beab" style="stroke:#000000;stroke-width:0.8;"/>
      </defs>
      <g>
       <use style="stroke:#000000;stroke-width:0.8;" x="45.08375" xlink:href="#md68473beab" y="214.771076"/>
      </g>
     </g>
     <g id="text_8">
      <!-- 0 -->
      <g transform="translate(30.44875 219.330138)scale(0.12 -0.12)">
       <use xlink:href="#DejaVuSans-30"/>
      </g>
     </g>
    </g>
    <g id="ytick_2">
     <g id="line2d_8">
      <g>
       <use style="stroke:#000000;stroke-width:0.8;" x="45.08375" xlink:href="#md68473beab" y="178.532708"/>
      </g>
     </g>
     <g id="text_9">
      <!-- 10 -->
      <g transform="translate(22.81375 183.09177)scale(0.12 -0.12)">
       <defs>
        <path d="M 794 531 
L 1825 531 
L 1825 4091 
L 703 3866 
L 703 4441 
L 1819 4666 
L 2450 4666 
L 2450 531 
L 3481 531 
L 3481 0 
L 794 0 
L 794 531 
z
" id="DejaVuSans-31" transform="scale(0.015625)"/>
       </defs>
       <use xlink:href="#DejaVuSans-31"/>
       <use x="63.623047" xlink:href="#DejaVuSans-30"/>
      </g>
     </g>
    </g>
    <g id="ytick_3">
     <g id="line2d_9">
      <g>
       <use style="stroke:#000000;stroke-width:0.8;" x="45.08375" xlink:href="#md68473beab" y="142.29434"/>
      </g>
     </g>
     <g id="text_10">
      <!-- 20 -->
      <g transform="translate(22.81375 146.853402)scale(0.12 -0.12)">
       <defs>
        <path d="M 1228 531 
L 3431 531 
L 3431 0 
L 469 0 
L 469 531 
Q 828 903 1448 1529 
Q 2069 2156 2228 2338 
Q 2531 2678 2651 2914 
Q 2772 3150 2772 3378 
Q 2772 3750 2511 3984 
Q 2250 4219 1831 4219 
Q 1534 4219 1204 4116 
Q 875 4013 500 3803 
L 500 4441 
Q 881 4594 1212 4672 
Q 1544 4750 1819 4750 
Q 2544 4750 2975 4387 
Q 3406 4025 3406 3419 
Q 3406 3131 3298 2873 
Q 3191 2616 2906 2266 
Q 2828 2175 2409 1742 
Q 1991 1309 1228 531 
z
" id="DejaVuSans-32" transform="scale(0.015625)"/>
       </defs>
       <use xlink:href="#DejaVuSans-32"/>
       <use x="63.623047" xlink:href="#DejaVuSans-30"/>
      </g>
     </g>
    </g>
    <g id="ytick_4">
     <g id="line2d_10">
      <g>
       <use style="stroke:#000000;stroke-width:0.8;" x="45.08375" xlink:href="#md68473beab" y="106.055972"/>
      </g>
     </g>
     <g id="text_11">
      <!-- 30 -->
      <g transform="translate(22.81375 110.615035)scale(0.12 -0.12)">
       <defs>
        <path d="M 2597 2516 
Q 3050 2419 3304 2112 
Q 3559 1806 3559 1356 
Q 3559 666 3084 287 
Q 2609 -91 1734 -91 
Q 1441 -91 1130 -33 
Q 819 25 488 141 
L 488 750 
Q 750 597 1062 519 
Q 1375 441 1716 441 
Q 2309 441 2620 675 
Q 2931 909 2931 1356 
Q 2931 1769 2642 2001 
Q 2353 2234 1838 2234 
L 1294 2234 
L 1294 2753 
L 1863 2753 
Q 2328 2753 2575 2939 
Q 2822 3125 2822 3475 
Q 2822 3834 2567 4026 
Q 2313 4219 1838 4219 
Q 1578 4219 1281 4162 
Q 984 4106 628 3988 
L 628 4550 
Q 988 4650 1302 4700 
Q 1616 4750 1894 4750 
Q 2613 4750 3031 4423 
Q 3450 4097 3450 3541 
Q 3450 3153 3228 2886 
Q 3006 2619 2597 2516 
z
" id="DejaVuSans-33" transform="scale(0.015625)"/>
       </defs>
       <use xlink:href="#DejaVuSans-33"/>
       <use x="63.623047" xlink:href="#DejaVuSans-30"/>
      </g>
     </g>
    </g>
    <g id="ytick_5">
     <g id="line2d_11">
      <g>
       <use style="stroke:#000000;stroke-width:0.8;" x="45.08375" xlink:href="#md68473beab" y="69.817604"/>
      </g>
     </g>
     <g id="text_12">
      <!-- 40 -->
      <g transform="translate(22.81375 74.376667)scale(0.12 -0.12)">
       <use xlink:href="#DejaVuSans-34"/>
       <use x="63.623047" xlink:href="#DejaVuSans-30"/>
      </g>
     </g>
    </g>
    <g id="ytick_6">
     <g id="line2d_12">
      <g>
       <use style="stroke:#000000;stroke-width:0.8;" x="45.08375" xlink:href="#md68473beab" y="33.579236"/>
      </g>
     </g>
     <g id="text_13">
      <!-- 50 -->
      <g transform="translate(22.81375 38.138299)scale(0.12 -0.12)">
       <use xlink:href="#DejaVuSans-35"/>
       <use x="63.623047" xlink:href="#DejaVuSans-30"/>
      </g>
     </g>
    </g>
    <g id="text_14">
     <!-- Transmittance (%) -->
     <g transform="translate(16.318125 170.746875)rotate(-90)scale(0.12 -0.12)">
      <defs>
       <path d="M -19 4666 
L 3928 4666 
L 3928 4134 
L 2272 4134 
L 2272 0 
L 1638 0 
L 1638 4134 
L -19 4134 
L -19 4666 
z
" id="DejaVuSans-54" transform="scale(0.015625)"/>
       <path d="M 2631 2963 
Q 2534 3019 2420 3045 
Q 2306 3072 2169 3072 
Q 1681 3072 1420 2755 
Q 1159 2438 1159 1844 
L 1159 0 
L 581 0 
L 581 3500 
L 1159 3500 
L 1159 2956 
Q 1341 3275 1631 3429 
Q 1922 3584 2338 3584 
Q 2397 3584 2469 3576 
Q 2541 3569 2628 3553 
L 2631 2963 
z
" id="DejaVuSans-72" transform="scale(0.015625)"/>
       <path d="M 2834 3397 
L 2834 2853 
Q 2591 2978 2328 3040 
Q 2066 3103 1784 3103 
Q 1356 3103 1142 2972 
Q 928 2841 928 2578 
Q 928 2378 1081 2264 
Q 1234 2150 1697 2047 
L 1894 2003 
Q 2506 1872 2764 1633 
Q 3022 1394 3022 966 
Q 3022 478 2636 193 
Q 2250 -91 1575 -91 
Q 1294 -91 989 -36 
Q 684 19 347 128 
L 347 722 
Q 666 556 975 473 
Q 1284 391 1588 391 
Q 1994 391 2212 530 
Q 2431 669 2431 922 
Q 2431 1156 2273 1281 
Q 2116 1406 1581 1522 
L 1381 1569 
Q 847 1681 609 1914 
Q 372 2147 372 2553 
Q 372 3047 722 3315 
Q 1072 3584 1716 3584 
Q 2034 3584 2315 3537 
Q 2597 3491 2834 3397 
z
" id="DejaVuSans-73" transform="scale(0.015625)"/>
       <path d="M 603 3500 
L 1178 3500 
L 1178 0 
L 603 0 
L 603 3500 
z
M 603 4863 
L 1178 4863 
L 1178 4134 
L 603 4134 
L 603 4863 
z
" id="DejaVuSans-69" transform="scale(0.015625)"/>
       <path d="M 3122 3366 
L 3122 2828 
Q 2878 2963 2633 3030 
Q 2388 3097 2138 3097 
Q 1578 3097 1268 2742 
Q 959 2388 959 1747 
Q 959 1106 1268 751 
Q 1578 397 2138 397 
Q 2388 397 2633 464 
Q 2878 531 3122 666 
L 3122 134 
Q 2881 22 2623 -34 
Q 2366 -91 2075 -91 
Q 1284 -91 818 406 
Q 353 903 353 1747 
Q 353 2603 823 3093 
Q 1294 3584 2113 3584 
Q 2378 3584 2631 3529 
Q 2884 3475 3122 3366 
z
" id="DejaVuSans-63" transform="scale(0.015625)"/>
       <path d="M 4653 2053 
Q 4381 2053 4226 1822 
Q 4072 1591 4072 1178 
Q 4072 772 4226 539 
Q 4381 306 4653 306 
Q 4919 306 5073 539 
Q 5228 772 5228 1178 
Q 5228 1588 5073 1820 
Q 4919 2053 4653 2053 
z
M 4653 2450 
Q 5147 2450 5437 2106 
Q 5728 1763 5728 1178 
Q 5728 594 5436 251 
Q 5144 -91 4653 -91 
Q 4153 -91 3862 251 
Q 3572 594 3572 1178 
Q 3572 1766 3864 2108 
Q 4156 2450 4653 2450 
z
M 1428 4353 
Q 1159 4353 1004 4120 
Q 850 3888 850 3481 
Q 850 3069 1003 2837 
Q 1156 2606 1428 2606 
Q 1700 2606 1854 2837 
Q 2009 3069 2009 3481 
Q 2009 3884 1853 4118 
Q 1697 4353 1428 4353 
z
M 4250 4750 
L 4750 4750 
L 1831 -91 
L 1331 -91 
L 4250 4750 
z
M 1428 4750 
Q 1922 4750 2215 4408 
Q 2509 4066 2509 3481 
Q 2509 2891 2217 2550 
Q 1925 2209 1428 2209 
Q 931 2209 642 2551 
Q 353 2894 353 3481 
Q 353 4063 643 4406 
Q 934 4750 1428 4750 
z
" id="DejaVuSans-25" transform="scale(0.015625)"/>
      </defs>
      <use xlink:href="#DejaVuSans-54"/>
      <use x="46.333984" xlink:href="#DejaVuSans-72"/>
      <use x="87.447266" xlink:href="#DejaVuSans-61"/>
      <use x="148.726562" xlink:href="#DejaVuSans-6e"/>
      <use x="212.105469" xlink:href="#DejaVuSans-73"/>
      <use x="264.205078" xlink:href="#DejaVuSans-6d"/>
      <use x="361.617188" xlink:href="#DejaVuSans-69"/>
      <use x="389.400391" xlink:href="#DejaVuSans-74"/>
      <use x="428.609375" xlink:href="#DejaVuSans-74"/>
      <use x="467.818359" xlink:href="#DejaVuSans-61"/>
      <use x="529.097656" xlink:href="#DejaVuSans-6e"/>
      <use x="592.476562" xlink:href="#DejaVuSans-63"/>
      <use x="647.457031" xlink:href="#DejaVuSans-65"/>
      <use x="708.980469" xlink:href="#DejaVuSans-20"/>
      <use x="740.767578" xlink:href="#DejaVuSans-28"/>
      <use x="779.78125" xlink:href="#DejaVuSans-25"/>
      <use x="874.800781" xlink:href="#DejaVuSans-29"/>
     </g>
    </g>
   </g>
   <g id="line2d_13">
    <path clip-path="url(#p0203e20849)" d="M 60.301932 214.756364 
L 95.608114 214.633595 
L 129.088114 214.349825 
L 161.959386 213.844128 
L 170.481568 213.509905 
L 175.351386 213.128545 
L 179.00375 212.642995 
L 182.047386 212.02607 
L 184.482295 211.33871 
L 186.917205 210.43045 
L 189.352114 209.253823 
L 191.787023 207.762259 
L 193.613205 206.411456 
L 195.439386 204.845182 
L 197.265568 203.05246 
L 199.700477 200.299289 
L 202.135386 197.131087 
L 204.570295 193.563979 
L 207.005205 189.631499 
L 210.048841 184.277681 
L 213.701205 177.371017 
L 220.397205 164.085759 
L 225.87575 153.431747 
L 229.528114 146.786894 
L 232.57175 141.658904 
L 235.615386 136.973374 
L 238.050295 133.572309 
L 240.485205 130.48967 
L 242.920114 127.720508 
L 245.355023 125.246252 
L 248.398659 122.518843 
L 251.442295 120.116104 
L 255.703386 117.097371 
L 264.225568 111.182247 
L 267.877932 108.339072 
L 271.530295 105.208015 
L 275.182659 101.795516 
L 280.052477 96.902346 
L 298.923023 77.479171 
L 303.792841 72.985698 
L 308.053932 69.335297 
L 312.315023 65.997014 
L 315.967386 63.432144 
L 319.011023 61.536544 
L 322.054659 59.881629 
L 325.098295 58.480436 
L 328.141932 57.344845 
L 331.185568 56.492019 
L 333.620477 56.030108 
L 336.055386 55.782395 
L 338.490295 55.768591 
L 340.925205 56.004241 
L 343.360114 56.493459 
L 345.795023 57.226958 
L 348.229932 58.184159 
L 351.273568 59.645219 
L 361.013205 64.640042 
L 363.448114 65.438584 
L 364.665568 65.72177 
L 364.665568 65.72177 
" style="fill:none;stroke:#ff0000;stroke-linecap:square;stroke-width:1.5;"/>
   </g>
   <g id="line2d_14">
    <path clip-path="url(#p0203e20849)" d="M 60.301932 214.730455 
L 83.433568 214.601795 
L 132.13175 214.002568 
L 160.133205 213.428004 
L 169.264114 213.048553 
L 174.133932 212.630536 
L 177.177568 212.16977 
L 179.612477 211.614546 
L 182.047386 210.824049 
L 183.873568 210.03158 
L 185.69975 209.029474 
L 187.525932 207.781667 
L 189.352114 206.252474 
L 191.178295 204.408411 
L 193.004477 202.220144 
L 194.830659 199.664436 
L 196.656841 196.725929 
L 198.483023 193.398617 
L 200.309205 189.68691 
L 202.744114 184.168167 
L 205.179023 178.060756 
L 208.222659 169.747107 
L 211.875023 159.084942 
L 223.440841 124.787223 
L 227.093205 114.79651 
L 230.745568 105.441322 
L 233.789205 98.173527 
L 236.832841 91.428416 
L 239.876477 85.259135 
L 242.311386 80.779608 
L 244.746295 76.738503 
L 247.181205 73.159904 
L 249.616114 70.056358 
L 251.442295 68.039173 
L 253.268477 66.27973 
L 255.094659 64.764134 
L 256.920841 63.472934 
L 259.35575 62.057894 
L 261.790659 60.931204 
L 264.834295 59.817793 
L 269.095386 58.563976 
L 276.400114 56.467795 
L 280.661205 55.004037 
L 284.922295 53.312479 
L 290.400841 50.867941 
L 298.314295 47.051631 
L 306.836477 42.714253 
L 311.706295 40.003734 
L 315.967386 37.388188 
L 320.228477 34.511197 
L 325.098295 30.944334 
L 335.446659 23.243704 
L 338.490295 21.316624 
L 340.925205 20.012312 
L 343.360114 18.956802 
L 345.795023 18.156302 
L 348.229932 17.592544 
L 350.664841 17.241801 
L 353.09975 17.090524 
L 355.534659 17.138617 
L 357.969568 17.388187 
L 361.013205 17.94374 
L 364.665568 18.712195 
L 364.665568 18.712195 
" style="fill:none;stroke:#ffa500;stroke-linecap:square;stroke-width:1.5;"/>
   </g>
   <g id="line2d_15">
    <path clip-path="url(#p0203e20849)" d="M 60.301932 213.879289 
L 70.650295 213.719411 
L 78.56375 213.363119 
L 94.390659 212.590777 
L 126.044477 211.615585 
L 149.176114 211.021104 
L 163.176841 210.584975 
L 169.264114 210.194918 
L 172.916477 209.773825 
L 175.960114 209.224306 
L 178.395023 208.593391 
L 180.829932 207.73504 
L 183.264841 206.589971 
L 185.091023 205.505673 
L 186.917205 204.199261 
L 188.743386 202.646414 
L 190.569568 200.825629 
L 192.39575 198.719451 
L 194.221932 196.315568 
L 196.048114 193.607667 
L 198.483023 189.525614 
L 200.917932 184.923674 
L 203.352841 179.842149 
L 206.396477 172.907318 
L 210.048841 163.927654 
L 215.527386 149.715856 
L 222.832114 130.846895 
L 226.484477 121.984125 
L 229.528114 115.072747 
L 232.57175 108.67918 
L 235.615386 102.863606 
L 238.050295 98.653691 
L 240.485205 94.84689 
L 242.920114 91.441191 
L 245.355023 88.424575 
L 247.789932 85.776148 
L 250.224841 83.467893 
L 252.65975 81.466747 
L 255.094659 79.736771 
L 257.529568 78.241564 
L 260.573205 76.649378 
L 263.616841 75.305042 
L 267.269205 73.937138 
L 271.530295 72.57342 
L 277.617568 70.880533 
L 286.13975 68.769557 
L 294.661932 66.881649 
L 313.532477 62.861621 
L 322.663386 60.765661 
L 326.924477 60.029286 
L 330.576841 59.609335 
L 334.837932 59.350348 
L 342.142659 58.960946 
L 344.577568 58.600717 
L 347.012477 57.999584 
L 348.838659 57.354091 
L 350.664841 56.527688 
L 353.09975 55.153695 
L 356.143386 53.091507 
L 362.230659 48.810492 
L 364.056841 47.829762 
L 364.665568 47.563509 
L 364.665568 47.563509 
" style="fill:none;stroke:#008000;stroke-linecap:square;stroke-width:1.5;"/>
   </g>
   <g id="line2d_16">
    <path clip-path="url(#p0203e20849)" d="M 60.301932 214.488353 
L 77.346295 214.319346 
L 123.609568 213.378981 
L 163.785568 212.277864 
L 169.264114 211.923755 
L 172.916477 211.512937 
L 175.960114 210.979087 
L 178.395023 210.36746 
L 180.829932 209.535702 
L 183.264841 208.425124 
L 185.091023 207.371739 
L 186.917205 206.099992 
L 188.743386 204.584591 
L 190.569568 202.80261 
L 192.39575 200.734732 
L 194.221932 198.36637 
L 196.048114 195.688611 
L 198.483023 191.633505 
L 200.917932 187.037195 
L 203.352841 181.933836 
L 206.396477 174.925923 
L 209.440114 167.353224 
L 213.701205 156.122918 
L 224.049568 128.514187 
L 227.701932 119.490794 
L 230.745568 112.495474 
L 233.789205 106.05841 
L 236.224114 101.345821 
L 238.659023 97.037757 
L 241.093932 93.13747 
L 243.528841 89.637832 
L 245.96375 86.522716 
L 248.398659 83.769076 
L 250.833568 81.349163 
L 253.268477 79.232472 
L 255.703386 77.387026 
L 258.138295 75.780103 
L 261.181932 74.057137 
L 264.225568 72.594153 
L 267.877932 71.102045 
L 272.139023 69.620819 
L 277.008841 68.160144 
L 282.487386 66.738539 
L 288.574659 65.404645 
L 295.270659 64.185723 
L 313.532477 61.008449 
L 331.185568 57.675328 
L 337.272841 56.839538 
L 343.360114 56.235401 
L 351.273568 55.705492 
L 364.056841 55.048622 
L 364.665568 55.029044 
L 364.665568 55.029044 
" style="fill:none;stroke:#800080;stroke-linecap:square;stroke-width:1.5;"/>
   </g>
   <g id="line2d_17">
    <path clip-path="url(#p0203e20849)" d="M 60.301932 213.879289 
L 70.650295 213.719411 
L 78.56375 213.363119 
L 94.390659 212.590777 
L 126.044477 211.615585 
L 149.176114 211.021104 
L 163.176841 210.584975 
L 169.264114 210.194918 
L 172.916477 209.773825 
L 175.960114 209.224306 
L 178.395023 208.593391 
L 180.829932 207.73504 
L 183.264841 206.589971 
L 185.091023 205.505673 
L 186.917205 204.199261 
L 188.743386 202.646414 
L 190.569568 200.825629 
L 192.39575 198.719451 
L 194.221932 196.315568 
L 196.048114 193.607667 
L 198.483023 189.525614 
L 200.917932 184.923674 
L 203.352841 179.842149 
L 206.396477 172.907318 
L 210.048841 163.927654 
L 215.527386 149.715856 
L 222.832114 130.846895 
L 226.484477 121.984125 
L 229.528114 115.072747 
L 232.57175 108.67918 
L 235.615386 102.863606 
L 238.050295 98.653691 
L 240.485205 94.84689 
L 242.920114 91.441191 
L 245.355023 88.424575 
L 247.789932 85.776148 
L 250.224841 83.467893 
L 252.65975 81.466747 
L 255.094659 79.736771 
L 257.529568 78.241564 
L 260.573205 76.649378 
L 263.616841 75.305042 
L 267.269205 73.937138 
L 271.530295 72.57342 
L 277.617568 70.880533 
L 286.13975 68.769557 
L 294.661932 66.881649 
L 313.532477 62.861621 
L 322.663386 60.765661 
L 326.924477 60.029286 
L 330.576841 59.609335 
L 334.837932 59.350348 
L 342.142659 58.960946 
L 344.577568 58.600717 
L 347.012477 57.999584 
L 348.838659 57.354091 
L 350.664841 56.527688 
L 353.09975 55.153695 
L 356.143386 53.091507 
L 362.230659 48.810492 
L 364.056841 47.829762 
L 364.665568 47.563509 
L 364.665568 47.563509 
" style="fill:none;stroke:#008080;stroke-linecap:square;stroke-width:1.5;"/>
   </g>
   <g id="line2d_18">
    <path clip-path="url(#p0203e20849)" d="M 60.301932 213.879289 
L 70.650295 213.719411 
L 78.56375 213.363119 
L 94.390659 212.590777 
L 126.044477 211.615585 
L 149.176114 211.021104 
L 163.176841 210.584975 
L 169.264114 210.194918 
L 172.916477 209.773825 
L 175.960114 209.224306 
L 178.395023 208.593391 
L 180.829932 207.73504 
L 183.264841 206.589971 
L 185.091023 205.505673 
L 186.917205 204.199261 
L 188.743386 202.646414 
L 190.569568 200.825629 
L 192.39575 198.719451 
L 194.221932 196.315568 
L 196.048114 193.607667 
L 198.483023 189.525614 
L 200.917932 184.923674 
L 203.352841 179.842149 
L 206.396477 172.907318 
L 210.048841 163.927654 
L 215.527386 149.715856 
L 222.832114 130.846895 
L 226.484477 121.984125 
L 229.528114 115.072747 
L 232.57175 108.67918 
L 235.615386 102.863606 
L 238.050295 98.653691 
L 240.485205 94.84689 
L 242.920114 91.441191 
L 245.355023 88.424575 
L 247.789932 85.776148 
L 250.224841 83.467893 
L 252.65975 81.466747 
L 255.094659 79.736771 
L 257.529568 78.241564 
L 260.573205 76.649378 
L 263.616841 75.305042 
L 267.269205 73.937138 
L 271.530295 72.57342 
L 277.617568 70.880533 
L 286.13975 68.769557 
L 294.661932 66.881649 
L 313.532477 62.861621 
L 322.663386 60.765661 
L 326.924477 60.029286 
L 330.576841 59.609335 
L 334.837932 59.350348 
L 342.142659 58.960946 
L 344.577568 58.600717 
L 347.012477 57.999584 
L 348.838659 57.354091 
L 350.664841 56.527688 
L 353.09975 55.153695 
L 356.143386 53.091507 
L 362.230659 48.810492 
L 364.056841 47.829762 
L 364.665568 47.563509 
L 364.665568 47.563509 
" style="fill:none;stroke:#4b0082;stroke-linecap:square;stroke-width:1.5;"/>
   </g>
   <g id="line2d_19">
    <path clip-path="url(#p0203e20849)" d="M 60.301932 213.879289 
L 70.650295 213.719411 
L 78.56375 213.363119 
L 94.390659 212.590777 
L 126.044477 211.615585 
L 149.176114 211.021104 
L 163.176841 210.584975 
L 169.264114 210.194918 
L 172.916477 209.773825 
L 175.960114 209.224306 
L 178.395023 208.593391 
L 180.829932 207.73504 
L 183.264841 206.589971 
L 185.091023 205.505673 
L 186.917205 204.199261 
L 188.743386 202.646414 
L 190.569568 200.825629 
L 192.39575 198.719451 
L 194.221932 196.315568 
L 196.048114 193.607667 
L 198.483023 189.525614 
L 200.917932 184.923674 
L 203.352841 179.842149 
L 206.396477 172.907318 
L 210.048841 163.927654 
L 215.527386 149.715856 
L 222.832114 130.846895 
L 226.484477 121.984125 
L 229.528114 115.072747 
L 232.57175 108.67918 
L 235.615386 102.863606 
L 238.050295 98.653691 
L 240.485205 94.84689 
L 242.920114 91.441191 
L 245.355023 88.424575 
L 247.789932 85.776148 
L 250.224841 83.467893 
L 252.65975 81.466747 
L 255.094659 79.736771 
L 257.529568 78.241564 
L 260.573205 76.649378 
L 263.616841 75.305042 
L 267.269205 73.937138 
L 271.530295 72.57342 
L 277.617568 70.880533 
L 286.13975 68.769557 
L 294.661932 66.881649 
L 313.532477 62.861621 
L 322.663386 60.765661 
L 326.924477 60.029286 
L 330.576841 59.609335 
L 334.837932 59.350348 
L 342.142659 58.960946 
L 344.577568 58.600717 
L 347.012477 57.999584 
L 348.838659 57.354091 
L 350.664841 56.527688 
L 353.09975 55.153695 
L 356.143386 53.091507 
L 362.230659 48.810492 
L 364.056841 47.829762 
L 364.665568 47.563509 
L 364.665568 47.563509 
" style="fill:none;stroke:#0000ff;stroke-linecap:square;stroke-width:1.5;"/>
   </g>
   <g id="line2d_20">
    <path clip-path="url(#p0203e20849)" d="M 60.301932 214.706832 
L 82.216114 214.569105 
L 129.088114 213.937304 
L 162.568114 213.209849 
L 170.481568 212.825944 
L 174.742659 212.420446 
L 177.786295 211.941525 
L 180.221205 211.378752 
L 182.656114 210.594617 
L 185.091023 209.522851 
L 186.917205 208.487133 
L 188.743386 207.218317 
L 190.569568 205.686569 
L 192.39575 203.864683 
L 194.221932 201.729672 
L 196.048114 199.264253 
L 197.874295 196.458155 
L 199.700477 193.309133 
L 202.135386 188.589419 
L 204.570295 183.312291 
L 207.005205 177.543589 
L 210.048841 169.775441 
L 214.309932 158.219724 
L 224.049568 131.5151 
L 227.701932 122.176242 
L 231.354295 113.468197 
L 234.397932 106.768595 
L 237.441568 100.627451 
L 239.876477 96.143824 
L 242.311386 92.059098 
L 244.746295 88.383244 
L 247.181205 85.11885 
L 249.616114 82.259229 
L 252.051023 79.786896 
L 254.485932 77.673421 
L 256.920841 75.880975 
L 259.35575 74.365006 
L 262.399386 72.784577 
L 265.443023 71.462164 
L 269.704114 69.869389 
L 286.748477 63.773445 
L 301.966659 58.135853 
L 309.271386 55.32856 
L 315.967386 52.498496 
L 322.663386 49.423249 
L 328.750659 46.388868 
L 340.316477 40.497626 
L 343.968841 38.92246 
L 347.621205 37.60002 
L 351.273568 36.534837 
L 354.925932 35.694603 
L 358.578295 35.098822 
L 362.230659 34.753157 
L 364.665568 34.635066 
L 364.665568 34.635066 
" style="fill:none;stroke:#c0c0c0;stroke-linecap:square;stroke-width:1.5;"/>
   </g>
   <g id="line2d_21">
    <path clip-path="url(#p0203e20849)" d="M 60.301932 214.571762 
L 79.781205 214.420757 
L 123.000841 213.695318 
L 155.263386 212.852016 
L 165.61175 212.423925 
L 171.090295 211.986385 
L 174.742659 211.486853 
L 177.786295 210.851414 
L 180.221205 210.137416 
L 182.656114 209.183144 
L 185.091023 207.929705 
L 186.917205 206.756413 
L 188.743386 205.354895 
L 190.569568 203.70138 
L 192.39575 201.774981 
L 194.221932 199.558871 
L 196.048114 197.041318 
L 197.874295 194.216499 
L 200.309205 189.974243 
L 202.744114 185.208234 
L 205.179023 179.960355 
L 208.222659 172.817259 
L 211.875023 163.591817 
L 217.353568 149.032325 
L 224.049568 131.337899 
L 227.701932 122.245343 
L 230.745568 115.152377 
L 233.789205 108.58845 
L 236.832841 102.612252 
L 239.26775 98.277749 
L 241.702659 94.346371 
L 244.137568 90.813326 
L 246.572477 87.665166 
L 249.007386 84.881159 
L 251.442295 82.434535 
L 253.877205 80.293796 
L 256.312114 78.424433 
L 258.747023 76.791295 
L 261.790659 75.03155 
L 264.834295 73.531475 
L 268.486659 72.006621 
L 272.139023 70.717315 
L 276.400114 69.436691 
L 281.878659 68.047628 
L 287.357205 66.88365 
L 293.444477 65.811427 
L 302.575386 64.461032 
L 313.532477 62.793255 
L 330.576841 60.045335 
L 334.229205 59.812651 
L 337.881568 59.843487 
L 343.968841 60.223071 
L 347.621205 60.340731 
L 350.664841 60.219596 
L 353.708477 59.853447 
L 357.360841 59.163596 
L 362.230659 58.266446 
L 364.665568 58.004075 
L 364.665568 58.004075 
" style="fill:none;stroke:#000000;stroke-linecap:square;stroke-width:1.5;"/>
   </g>
   <g id="line2d_22">
    <path clip-path="url(#p0203e20849)" d="M 60.301932 214.64223 
L 80.389932 214.49543 
L 120.565932 213.840817 
L 154.654659 212.984432 
L 165.61175 212.557121 
L 171.090295 212.134698 
L 174.742659 211.647092 
L 177.786295 211.021751 
L 180.221205 210.314931 
L 182.656114 209.365915 
L 184.482295 208.459168 
L 186.308477 207.355957 
L 188.134659 206.029999 
L 189.960841 204.456332 
L 191.787023 202.612542 
L 193.613205 200.479979 
L 195.439386 198.044855 
L 197.265568 195.299129 
L 199.700477 191.153125 
L 202.135386 186.467655 
L 204.570295 181.279017 
L 207.613932 174.17264 
L 211.266295 164.928736 
L 216.136114 151.872854 
L 224.049568 130.575263 
L 227.701932 121.335725 
L 230.745568 114.129577 
L 233.789205 107.462623 
L 236.832841 101.395144 
L 239.26775 96.997061 
L 241.702659 93.011006 
L 244.137568 89.432266 
L 246.572477 86.247192 
L 249.007386 83.434587 
L 251.442295 80.967021 
L 253.877205 78.812572 
L 256.312114 76.936901 
L 258.747023 75.305061 
L 261.790659 73.556232 
L 264.834295 72.07275 
L 268.486659 70.566018 
L 272.74775 69.09053 
L 277.617568 67.67688 
L 282.487386 66.493821 
L 287.965932 65.40495 
L 294.661932 64.335851 
L 322.054659 60.275252 
L 326.31575 59.350349 
L 330.576841 58.208035 
L 342.751386 54.703909 
L 345.186295 54.359206 
L 347.012477 54.280205 
L 348.838659 54.383579 
L 350.664841 54.686318 
L 352.491023 55.190789 
L 354.925932 56.144569 
L 357.969568 57.631979 
L 361.621932 59.396843 
L 363.448114 60.087094 
L 364.665568 60.438604 
L 364.665568 60.438604 
" style="fill:none;stroke:#ffd700;stroke-linecap:square;stroke-width:1.5;"/>
   </g>
   <g id="patch_3">
    <path d="M 45.08375 224.64 
L 45.08375 7.2 
" style="fill:none;stroke:#000000;stroke-linecap:square;stroke-linejoin:miter;stroke-width:0.8;"/>
   </g>
   <g id="patch_4">
    <path d="M 379.88375 224.64 
L 379.88375 7.2 
" style="fill:none;stroke:#000000;stroke-linecap:square;stroke-linejoin:miter;stroke-width:0.8;"/>
   </g>
   <g id="patch_5">
    <path d="M 45.08375 224.64 
L 379.88375 224.64 
" style="fill:none;stroke:#000000;stroke-linecap:square;stroke-linejoin:miter;stroke-width:0.8;"/>
   </g>
   <g id="patch_6">
    <path d="M 45.08375 7.2 
L 379.88375 7.2 
" style="fill:none;stroke:#000000;stroke-linecap:square;stroke-linejoin:miter;stroke-width:0.8;"/>
   </g>
   <g id="legend_1">
    <g id="patch_7">
     <path d="M 52.08375 161.98125 
L 138.380625 161.98125 
Q 140.380625 161.98125 140.380625 159.98125 
L 140.380625 14.2 
Q 140.380625 12.2 138.380625 12.2 
L 52.08375 12.2 
Q 50.08375 12.2 50.08375 14.2 
L 50.08375 159.98125 
Q 50.08375 161.98125 52.08375 161.98125 
z
" style="fill:#ffffff;opacity:0.8;stroke:#cccccc;stroke-linejoin:miter;"/>
    </g>
    <g id="line2d_23">
     <path d="M 54.08375 20.298437 
L 74.08375 20.298437 
" style="fill:none;stroke:#ff0000;stroke-linecap:square;stroke-width:1.5;"/>
    </g>
    <g id="line2d_24"/>
    <g id="text_15">
     <!-- Day 0 -->
     <g transform="translate(82.08375 23.798437)scale(0.1 -0.1)">
      <defs>
       <path d="M 1259 4147 
L 1259 519 
L 2022 519 
Q 2988 519 3436 956 
Q 3884 1394 3884 2338 
Q 3884 3275 3436 3711 
Q 2988 4147 2022 4147 
L 1259 4147 
z
M 628 4666 
L 1925 4666 
Q 3281 4666 3915 4102 
Q 4550 3538 4550 2338 
Q 4550 1131 3912 565 
Q 3275 0 1925 0 
L 628 0 
L 628 4666 
z
" id="DejaVuSans-44" transform="scale(0.015625)"/>
       <path d="M 2059 -325 
Q 1816 -950 1584 -1140 
Q 1353 -1331 966 -1331 
L 506 -1331 
L 506 -850 
L 844 -850 
Q 1081 -850 1212 -737 
Q 1344 -625 1503 -206 
L 1606 56 
L 191 3500 
L 800 3500 
L 1894 763 
L 2988 3500 
L 3597 3500 
L 2059 -325 
z
" id="DejaVuSans-79" transform="scale(0.015625)"/>
      </defs>
      <use xlink:href="#DejaVuSans-44"/>
      <use x="77.001953" xlink:href="#DejaVuSans-61"/>
      <use x="138.28125" xlink:href="#DejaVuSans-79"/>
      <use x="197.460938" xlink:href="#DejaVuSans-20"/>
      <use x="229.248047" xlink:href="#DejaVuSans-30"/>
     </g>
    </g>
    <g id="line2d_25">
     <path d="M 54.08375 34.976562 
L 74.08375 34.976562 
" style="fill:none;stroke:#ffa500;stroke-linecap:square;stroke-width:1.5;"/>
    </g>
    <g id="line2d_26"/>
    <g id="text_16">
     <!-- Day 2 -->
     <g transform="translate(82.08375 38.476562)scale(0.1 -0.1)">
      <use xlink:href="#DejaVuSans-44"/>
      <use x="77.001953" xlink:href="#DejaVuSans-61"/>
      <use x="138.28125" xlink:href="#DejaVuSans-79"/>
      <use x="197.460938" xlink:href="#DejaVuSans-20"/>
      <use x="229.248047" xlink:href="#DejaVuSans-32"/>
     </g>
    </g>
    <g id="line2d_27">
     <path d="M 54.08375 49.654687 
L 74.08375 49.654687 
" style="fill:none;stroke:#008000;stroke-linecap:square;stroke-width:1.5;"/>
    </g>
    <g id="line2d_28"/>
    <g id="text_17">
     <!-- Day 20 AM -->
     <g transform="translate(82.08375 53.154687)scale(0.1 -0.1)">
      <defs>
       <path d="M 2188 4044 
L 1331 1722 
L 3047 1722 
L 2188 4044 
z
M 1831 4666 
L 2547 4666 
L 4325 0 
L 3669 0 
L 3244 1197 
L 1141 1197 
L 716 0 
L 50 0 
L 1831 4666 
z
" id="DejaVuSans-41" transform="scale(0.015625)"/>
       <path d="M 628 4666 
L 1569 4666 
L 2759 1491 
L 3956 4666 
L 4897 4666 
L 4897 0 
L 4281 0 
L 4281 4097 
L 3078 897 
L 2444 897 
L 1241 4097 
L 1241 0 
L 628 0 
L 628 4666 
z
" id="DejaVuSans-4d" transform="scale(0.015625)"/>
      </defs>
      <use xlink:href="#DejaVuSans-44"/>
      <use x="77.001953" xlink:href="#DejaVuSans-61"/>
      <use x="138.28125" xlink:href="#DejaVuSans-79"/>
      <use x="197.460938" xlink:href="#DejaVuSans-20"/>
      <use x="229.248047" xlink:href="#DejaVuSans-32"/>
      <use x="292.871094" xlink:href="#DejaVuSans-30"/>
      <use x="356.494141" xlink:href="#DejaVuSans-20"/>
      <use x="388.28125" xlink:href="#DejaVuSans-41"/>
      <use x="456.689453" xlink:href="#DejaVuSans-4d"/>
     </g>
    </g>
    <g id="line2d_29">
     <path d="M 54.08375 64.332812 
L 74.08375 64.332812 
" style="fill:none;stroke:#800080;stroke-linecap:square;stroke-width:1.5;"/>
    </g>
    <g id="line2d_30"/>
    <g id="text_18">
     <!-- Day 20 PM -->
     <g transform="translate(82.08375 67.832812)scale(0.1 -0.1)">
      <defs>
       <path d="M 1259 4147 
L 1259 2394 
L 2053 2394 
Q 2494 2394 2734 2622 
Q 2975 2850 2975 3272 
Q 2975 3691 2734 3919 
Q 2494 4147 2053 4147 
L 1259 4147 
z
M 628 4666 
L 2053 4666 
Q 2838 4666 3239 4311 
Q 3641 3956 3641 3272 
Q 3641 2581 3239 2228 
Q 2838 1875 2053 1875 
L 1259 1875 
L 1259 0 
L 628 0 
L 628 4666 
z
" id="DejaVuSans-50" transform="scale(0.015625)"/>
      </defs>
      <use xlink:href="#DejaVuSans-44"/>
      <use x="77.001953" xlink:href="#DejaVuSans-61"/>
      <use x="138.28125" xlink:href="#DejaVuSans-79"/>
      <use x="197.460938" xlink:href="#DejaVuSans-20"/>
      <use x="229.248047" xlink:href="#DejaVuSans-32"/>
      <use x="292.871094" xlink:href="#DejaVuSans-30"/>
      <use x="356.494141" xlink:href="#DejaVuSans-20"/>
      <use x="388.28125" xlink:href="#DejaVuSans-50"/>
      <use x="448.583984" xlink:href="#DejaVuSans-4d"/>
     </g>
    </g>
    <g id="line2d_31">
     <path d="M 54.08375 79.010938 
L 74.08375 79.010938 
" style="fill:none;stroke:#008080;stroke-linecap:square;stroke-width:1.5;"/>
    </g>
    <g id="line2d_32"/>
    <g id="text_19">
     <!-- Day 27 -->
     <g transform="translate(82.08375 82.510938)scale(0.1 -0.1)">
      <use xlink:href="#DejaVuSans-44"/>
      <use x="77.001953" xlink:href="#DejaVuSans-61"/>
      <use x="138.28125" xlink:href="#DejaVuSans-79"/>
      <use x="197.460938" xlink:href="#DejaVuSans-20"/>
      <use x="229.248047" xlink:href="#DejaVuSans-32"/>
      <use x="292.871094" xlink:href="#DejaVuSans-37"/>
     </g>
    </g>
    <g id="line2d_33">
     <path d="M 54.08375 93.689062 
L 74.08375 93.689062 
" style="fill:none;stroke:#4b0082;stroke-linecap:square;stroke-width:1.5;"/>
    </g>
    <g id="line2d_34"/>
    <g id="text_20">
     <!-- Day 43 -->
     <g transform="translate(82.08375 97.189062)scale(0.1 -0.1)">
      <use xlink:href="#DejaVuSans-44"/>
      <use x="77.001953" xlink:href="#DejaVuSans-61"/>
      <use x="138.28125" xlink:href="#DejaVuSans-79"/>
      <use x="197.460938" xlink:href="#DejaVuSans-20"/>
      <use x="229.248047" xlink:href="#DejaVuSans-34"/>
      <use x="292.871094" xlink:href="#DejaVuSans-33"/>
     </g>
    </g>
    <g id="line2d_35">
     <path d="M 54.08375 108.367188 
L 74.08375 108.367188 
" style="fill:none;stroke:#0000ff;stroke-linecap:square;stroke-width:1.5;"/>
    </g>
    <g id="line2d_36"/>
    <g id="text_21">
     <!-- Day 51 -->
     <g transform="translate(82.08375 111.867188)scale(0.1 -0.1)">
      <use xlink:href="#DejaVuSans-44"/>
      <use x="77.001953" xlink:href="#DejaVuSans-61"/>
      <use x="138.28125" xlink:href="#DejaVuSans-79"/>
      <use x="197.460938" xlink:href="#DejaVuSans-20"/>
      <use x="229.248047" xlink:href="#DejaVuSans-35"/>
      <use x="292.871094" xlink:href="#DejaVuSans-31"/>
     </g>
    </g>
    <g id="line2d_37">
     <path d="M 54.08375 123.045312 
L 74.08375 123.045312 
" style="fill:none;stroke:#c0c0c0;stroke-linecap:square;stroke-width:1.5;"/>
    </g>
    <g id="line2d_38"/>
    <g id="text_22">
     <!-- Day 6 -->
     <g transform="translate(82.08375 126.545312)scale(0.1 -0.1)">
      <use xlink:href="#DejaVuSans-44"/>
      <use x="77.001953" xlink:href="#DejaVuSans-61"/>
      <use x="138.28125" xlink:href="#DejaVuSans-79"/>
      <use x="197.460938" xlink:href="#DejaVuSans-20"/>
      <use x="229.248047" xlink:href="#DejaVuSans-36"/>
     </g>
    </g>
    <g id="line2d_39">
     <path d="M 54.08375 137.723437 
L 74.08375 137.723437 
" style="fill:none;stroke:#000000;stroke-linecap:square;stroke-width:1.5;"/>
    </g>
    <g id="line2d_40"/>
    <g id="text_23">
     <!-- Day 7 -->
     <g transform="translate(82.08375 141.223437)scale(0.1 -0.1)">
      <use xlink:href="#DejaVuSans-44"/>
      <use x="77.001953" xlink:href="#DejaVuSans-61"/>
      <use x="138.28125" xlink:href="#DejaVuSans-79"/>
      <use x="197.460938" xlink:href="#DejaVuSans-20"/>
      <use x="229.248047" xlink:href="#DejaVuSans-37"/>
     </g>
    </g>
    <g id="line2d_41">
     <path d="M 54.08375 152.401562 
L 74.08375 152.401562 
" style="fill:none;stroke:#ffd700;stroke-linecap:square;stroke-width:1.5;"/>
    </g>
    <g id="line2d_42"/>
    <g id="text_24">
     <!-- Day 9 -->
     <g transform="translate(82.08375 155.901562)scale(0.1 -0.1)">
      <use xlink:href="#DejaVuSans-44"/>
      <use x="77.001953" xlink:href="#DejaVuSans-61"/>
      <use x="138.28125" xlink:href="#DejaVuSans-79"/>
      <use x="197.460938" xlink:href="#DejaVuSans-20"/>
      <use x="229.248047" xlink:href="#DejaVuSans-39"/>
     </g>
    </g>
   </g>
  </g>
 </g>
 <defs>
  <clipPath id="p0203e20849">
   <rect height="217.44" width="334.8" x="45.08375" y="7.2"/>
  </clipPath>
 </defs>
</svg>
